<svg width="36" height="34" viewBox="0 0 36 34" fill="none" xmlns="http://www.w3.org/2000/svg" xmlns:xlink="http://www.w3.org/1999/xlink">
<path d="M13.897,11.439C14.153,11.439 14.41,11.341 14.605,11.145L15.14,10.61C15.532,10.219 15.532,9.584 15.14,9.192C14.749,8.801 14.114,8.801 13.722,9.192L13.188,9.727C12.554,10.361 13.012,11.439 13.897,11.439Z" fill="#B7B7B7"/>
<path d="M18.173,11.973C18.429,11.973 18.686,11.875 18.881,11.679L19.416,11.145C19.808,10.753 19.808,10.118 19.416,9.727C19.025,9.335 18.39,9.335 17.998,9.727L17.464,10.262C16.83,10.895 17.288,11.973 18.173,11.973Z" fill="#B7B7B7"/>
<path d="M13.897,15.714C14.153,15.714 14.41,15.617 14.605,15.421L15.14,14.886C15.532,14.495 15.532,13.86 15.14,13.468C14.749,13.077 14.114,13.077 13.722,13.468L13.188,14.003C12.554,14.636 13.012,15.714 13.897,15.714Z" fill="#B7B7B7"/>
<path d="M1.002,19.99L33.205,19.99C33.758,19.99 34.207,19.541 34.207,18.987C34.207,18.434 33.758,17.985 33.205,17.985L32.002,17.985L32.002,5.455C32.002,2.937 29.966,0.897 27.445,0.897C26.392,0.897 25.365,1.265 24.553,1.931L23.924,2.447C22.515,1.618 20.669,1.808 19.461,3.016L17.949,4.527C17.557,4.919 17.557,5.553 17.949,5.945L21.728,9.724C22.119,10.115 22.754,10.115 23.145,9.724C24.75,8.119 24.651,8.212 24.657,8.212C25.822,7.047 26.04,5.289 25.311,3.902L25.824,3.48C26.277,3.109 26.848,2.903 27.434,2.901C28.803,2.889 29.998,4.002 29.998,5.455L29.998,17.985C28.971,17.985 2.019,17.985 1.002,17.985C0.449,17.985 0,18.434 0,18.987C0,19.541 0.449,19.99 1.002,19.99Z" fill="#B7B7B7"/>
<path d="M2.735,21.994L3.162,24.342C3.798,27.837 6.391,30.551 9.688,31.438L9.688,32.884C9.688,33.437 10.136,33.886 10.69,33.886C11.243,33.886 11.692,33.437 11.692,32.884L11.692,31.741C12.005,31.753 22.238,31.752 22.515,31.741L22.515,32.884C22.515,33.437 22.964,33.886 23.517,33.886C24.071,33.886 24.52,33.437 24.52,32.884L24.52,31.438C27.816,30.551 30.41,27.837 31.045,24.342L31.472,21.994L2.735,21.994L2.735,21.994Z" fill="#B7B7B7"/>
</svg>
