<svg width="30" height="30" viewBox="0 0 30 30" fill="none" xmlns="http://www.w3.org/2000/svg" xmlns:xlink="http://www.w3.org/1999/xlink">
<path d="M10.956,9.959C11.176,9.959 11.395,9.875 11.563,9.708L12.02,9.25C12.355,8.915 12.355,8.372 12.02,8.037C11.685,7.701 11.142,7.701 10.807,8.037L10.349,8.494C9.807,9.036 10.198,9.959 10.956,9.959Z" fill="#858585"/>
<path d="M14.616,10.417C14.835,10.417 15.055,10.333 15.222,10.165L15.68,9.707C16.015,9.372 16.015,8.829 15.68,8.494C15.345,8.159 14.802,8.159 14.466,8.494L14.009,8.952C13.467,9.494 13.858,10.417 14.616,10.417Z" fill="#858585"/>
<path d="M10.956,13.619C11.176,13.619 11.395,13.536 11.563,13.368L12.02,12.91C12.355,12.575 12.355,12.032 12.02,11.697C11.685,11.362 11.142,11.362 10.807,11.697L10.349,12.154C9.807,12.697 10.198,13.619 10.956,13.619Z" fill="#858585"/>
<path d="M-0.081,17.278L27.484,17.278C27.958,17.278 28.342,16.894 28.342,16.421C28.342,15.947 27.958,15.563 27.484,15.563L26.455,15.563L26.455,4.837C26.455,2.682 24.711,0.935 22.554,0.935C21.652,0.935 20.773,1.25 20.078,1.82L19.539,2.262C18.334,1.553 16.753,1.715 15.719,2.749L14.425,4.043C14.09,4.378 14.09,4.921 14.425,5.256L17.66,8.491C17.995,8.826 18.538,8.826 18.873,8.491C20.247,7.117 20.162,7.197 20.167,7.197C21.164,6.2 21.351,4.694 20.727,3.507L21.166,3.147C21.554,2.829 22.043,2.653 22.544,2.651C23.716,2.64 24.739,3.593 24.739,4.837L24.739,15.563C23.86,15.563 0.789,15.563 -0.081,15.563C-0.555,15.563 -0.939,15.947 -0.939,16.421C-0.939,16.894 -0.555,17.278 -0.081,17.278Z" fill="#858585"/>
<path d="M1.402,18.994L1.768,21.005C2.312,23.996 4.532,26.32 7.354,27.079L7.354,28.316C7.354,28.79 7.738,29.174 8.212,29.174C8.685,29.174 9.07,28.79 9.07,28.316L9.07,27.338C9.337,27.348 18.097,27.347 18.334,27.338L18.334,28.316C18.334,28.79 18.718,29.174 19.192,29.174C19.666,29.174 20.05,28.79 20.05,28.316L20.05,27.079C22.872,26.32 25.092,23.996 25.636,21.005L26.001,18.994L1.402,18.994L1.402,18.994Z" fill="#858585"/>
</svg>
