<svg width="36" height="34" viewBox="0 0 36 34" fill="none" xmlns="http://www.w3.org/2000/svg" xmlns:xlink="http://www.w3.org/1999/xlink">
<path d="M14.862,11.439C15.119,11.439 15.375,11.341 15.571,11.145L16.106,10.61C16.497,10.219 16.497,9.584 16.106,9.193C15.714,8.801 15.079,8.801 14.688,9.193L14.153,9.727C13.52,10.361 13.977,11.439 14.862,11.439Z" fill="#FFFFFF"/>
<path d="M19.138,11.973C19.395,11.973 19.651,11.875 19.847,11.68L20.382,11.145C20.773,10.753 20.773,10.119 20.382,9.727C19.99,9.336 19.355,9.336 18.964,9.727L18.429,10.262C17.796,10.895 18.253,11.973 19.138,11.973Z" fill="#FFFFFF"/>
<path d="M14.862,15.715C15.119,15.715 15.375,15.617 15.571,15.421L16.106,14.886C16.497,14.495 16.497,13.86 16.106,13.468C15.714,13.077 15.079,13.077 14.688,13.468L14.153,14.003C13.52,14.637 13.977,15.715 14.862,15.715Z" fill="#FFFFFF"/>
<path d="M1.968,19.99L34.171,19.99C34.724,19.99 35.173,19.541 35.173,18.988C35.173,18.434 34.724,17.985 34.171,17.985L32.968,17.985L32.968,5.455C32.968,2.937 30.931,0.897 28.41,0.897C27.358,0.897 26.331,1.265 25.519,1.931L24.889,2.447C23.481,1.618 21.634,1.808 20.426,3.016L18.915,4.527C18.523,4.919 18.523,5.553 18.915,5.945L22.694,9.724C23.085,10.115 23.72,10.115 24.111,9.724C25.716,8.119 25.616,8.212 25.623,8.212C26.788,7.048 27.006,5.289 26.276,3.902L26.79,3.48C27.243,3.109 27.814,2.904 28.399,2.901C29.769,2.889 30.964,4.002 30.964,5.455L30.964,17.985C29.937,17.985 2.985,17.985 1.968,17.985C1.414,17.985 0.966,18.434 0.966,18.988C0.966,19.541 1.414,19.99 1.968,19.99Z" fill="#FFFFFF"/>
<path d="M3.701,21.994L4.128,24.342C4.763,27.837 7.356,30.551 10.653,31.439L10.653,32.884C10.653,33.438 11.102,33.886 11.655,33.886C12.209,33.886 12.657,33.438 12.657,32.884L12.657,31.741C12.97,31.753 23.204,31.752 23.481,31.741L23.481,32.884C23.481,33.438 23.929,33.886 24.483,33.886C25.036,33.886 25.485,33.438 25.485,32.884L25.485,31.439C28.782,30.551 31.375,27.837 32.011,24.342L32.438,21.994L3.701,21.994L3.701,21.994Z" fill="#FFFFFF"/>
</svg>
