<svg width="28" height="28" viewBox="0 0 28 28" fill="none" xmlns="http://www.w3.org/2000/svg" xmlns:xlink="http://www.w3.org/1999/xlink">
<path d="M10.313,9.133C10.519,9.133 10.724,9.055 10.881,8.898L11.309,8.47C11.622,8.157 11.622,7.649 11.309,7.335C10.995,7.022 10.487,7.022 10.174,7.335L9.746,7.763C9.239,8.27 9.605,9.133 10.313,9.133Z" fill="#B7B7B7"/>
<path d="M13.737,9.561C13.942,9.561 14.148,9.483 14.304,9.326L14.732,8.898C15.046,8.584 15.046,8.076 14.732,7.763C14.419,7.449 13.911,7.449 13.598,7.763L13.17,8.191C12.663,8.698 13.029,9.561 13.737,9.561Z" fill="#B7B7B7"/>
<path d="M10.313,12.556C10.519,12.556 10.724,12.478 10.881,12.321L11.309,11.893C11.622,11.58 11.622,11.072 11.309,10.758C10.995,10.445 10.487,10.445 10.174,10.758L9.746,11.186C9.239,11.694 9.605,12.556 10.313,12.556Z" fill="#B7B7B7"/>
<path d="M-0.012,15.981L25.775,15.981C26.218,15.981 26.578,15.622 26.578,15.179C26.578,14.735 26.218,14.376 25.775,14.376L24.812,14.376L24.812,4.342C24.812,2.326 23.181,0.692 21.163,0.692C20.32,0.692 19.497,0.987 18.847,1.52L18.343,1.934C17.215,1.27 15.736,1.421 14.769,2.389L13.559,3.599C13.245,3.913 13.245,4.421 13.559,4.734L16.585,7.761C16.898,8.074 17.406,8.074 17.72,7.761C19.005,6.476 18.925,6.55 18.93,6.55C19.863,5.617 20.038,4.209 19.454,3.098L19.865,2.761C20.227,2.464 20.685,2.299 21.154,2.297C22.25,2.287 23.207,3.179 23.207,4.342L23.207,14.376C22.385,14.376 0.802,14.376 -0.012,14.376C-0.455,14.376 -0.814,14.735 -0.814,15.179C-0.814,15.622 -0.455,15.981 -0.012,15.981Z" fill="#B7B7B7"/>
<path d="M1.375,17.586L1.717,19.467C2.226,22.266 4.302,24.439 6.942,25.15L6.942,26.307C6.942,26.75 7.302,27.11 7.745,27.11C8.188,27.11 8.547,26.75 8.547,26.307L8.547,25.392C8.798,25.401 16.993,25.4 17.214,25.392L17.214,26.307C17.214,26.75 17.574,27.11 18.017,27.11C18.46,27.11 18.819,26.75 18.819,26.307L18.819,25.15C21.459,24.439 23.536,22.266 24.045,19.467L24.387,17.586L1.375,17.586L1.375,17.586Z" fill="#B7B7B7"/>
</svg>
