<svg width="52" height="76" viewBox="0 0 52 76" fill="none" xmlns="http://www.w3.org/2000/svg" xmlns:xlink="http://www.w3.org/1999/xlink">
<path d="M13.332,76C20.324,76 25.999,70.325 25.999,63.333L25.999,50.667L13.332,50.667C6.34,50.667 0.666,56.341 0.666,63.333C0.666,70.325 6.34,76 13.332,76Z" fill="#0ACF83"/>
<path d="M0.666,38C0.666,31.008 6.34,25.333 13.332,25.333L25.999,25.333L25.999,50.667L13.332,50.667C6.34,50.667 0.666,44.992 0.666,38Z" fill="#A259FF"/>
<path d="M0.667,12.667C0.667,5.675 6.342,0 13.334,0L26,0L26,25.333L13.334,25.333C6.342,25.333 0.667,19.659 0.667,12.667Z" fill="#F24E1E"/>
<path d="M25.999,0L38.666,0C45.658,0 51.332,5.675 51.332,12.667C51.332,19.659 45.658,25.333 38.666,25.333L25.999,25.333L25.999,0Z" fill="#FF7262"/>
<path d="M51.332,38C51.332,44.992 45.658,50.667 38.666,50.667C31.674,50.667 25.999,44.992 25.999,38C25.999,31.008 31.674,25.333 38.666,25.333C45.658,25.333 51.332,31.008 51.332,38Z" fill="#1ABCFE"/>
</svg>
