<svg width="28" height="28" viewBox="0 0 28 28" fill="none" xmlns="http://www.w3.org/2000/svg" xmlns:xlink="http://www.w3.org/1999/xlink">
<path d="M10.313,9.276C10.519,9.276 10.724,9.198 10.881,9.041L11.309,8.613C11.622,8.3 11.622,7.792 11.309,7.478C10.995,7.165 10.487,7.165 10.174,7.478L9.746,7.906C9.239,8.413 9.605,9.276 10.313,9.276Z" fill="#858585"/>
<path d="M13.737,9.704C13.942,9.704 14.148,9.626 14.304,9.469L14.732,9.041C15.046,8.728 15.046,8.22 14.732,7.906C14.419,7.593 13.911,7.593 13.598,7.906L13.17,8.334C12.663,8.842 13.029,9.704 13.737,9.704Z" fill="#858585"/>
<path d="M10.313,12.7C10.519,12.7 10.724,12.622 10.881,12.465L11.309,12.037C11.622,11.724 11.622,11.216 11.309,10.902C10.995,10.589 10.487,10.589 10.174,10.902L9.746,11.33C9.239,11.837 9.605,12.7 10.313,12.7Z" fill="#858585"/>
<path d="M-0.012,16.124L25.775,16.124C26.218,16.124 26.578,15.765 26.578,15.322C26.578,14.879 26.218,14.519 25.775,14.519L24.812,14.519L24.812,4.485C24.812,2.469 23.181,0.835 21.163,0.835C20.32,0.835 19.497,1.13 18.847,1.663L18.343,2.077C17.215,1.413 15.736,1.565 14.769,2.532L13.559,3.743C13.245,4.056 13.245,4.564 13.559,4.877L16.585,7.904C16.898,8.217 17.406,8.217 17.72,7.904C19.005,6.619 18.925,6.693 18.93,6.693C19.863,5.761 20.038,4.352 19.454,3.242L19.865,2.904C20.227,2.607 20.685,2.442 21.154,2.44C22.25,2.43 23.207,3.322 23.207,4.485L23.207,14.519C22.385,14.519 0.802,14.519 -0.012,14.519C-0.455,14.519 -0.814,14.879 -0.814,15.322C-0.814,15.765 -0.455,16.124 -0.012,16.124Z" fill="#858585"/>
<path d="M1.375,17.729L1.717,19.61C2.226,22.408 4.302,24.582 6.942,25.292L6.942,26.45C6.942,26.893 7.302,27.252 7.745,27.252C8.188,27.252 8.547,26.893 8.547,26.45L8.547,25.535C8.798,25.544 16.993,25.543 17.214,25.535L17.214,26.45C17.214,26.893 17.574,27.252 18.017,27.252C18.46,27.252 18.819,26.893 18.819,26.45L18.819,25.292C21.459,24.582 23.536,22.408 24.045,19.61L24.387,17.729L1.375,17.729L1.375,17.729Z" fill="#858585"/>
</svg>
