<svg width="32" height="32" viewBox="0 0 32 32" fill="none" xmlns="http://www.w3.org/2000/svg" xmlns:xlink="http://www.w3.org/1999/xlink">
<path d="M12.999,9.861C13.239,9.861 13.479,9.77 13.662,9.586L14.162,9.086C14.528,8.72 14.528,8.127 14.162,7.761C13.796,7.395 13.202,7.395 12.836,7.761L12.336,8.261C11.744,8.853 12.171,9.861 12.999,9.861Z" fill="#FFFFFF"/>
<path d="M16.999,10.361C17.239,10.361 17.479,10.27 17.662,10.086L18.162,9.586C18.528,9.22 18.528,8.627 18.162,8.261C17.796,7.895 17.202,7.895 16.836,8.261L16.336,8.761C15.744,9.353 16.171,10.361 16.999,10.361Z" fill="#FFFFFF"/>
<path d="M12.999,13.861C13.239,13.861 13.479,13.77 13.662,13.586L14.162,13.086C14.528,12.72 14.528,12.127 14.162,11.761C13.796,11.395 13.202,11.395 12.836,11.761L12.336,12.261C11.744,12.853 12.171,13.861 12.999,13.861Z" fill="#FFFFFF"/>
<path d="M0.938,17.861L31.062,17.861C31.58,17.861 32,17.442 32,16.924C32,16.406 31.58,15.986 31.062,15.986L29.938,15.986L29.938,4.264C29.938,1.909 28.032,0 25.674,0C24.689,0 23.728,0.344 22.969,0.968L22.38,1.451C21.063,0.675 19.335,0.852 18.205,1.982L16.791,3.397C16.425,3.763 16.425,4.356 16.791,4.722L20.326,8.258C20.692,8.624 21.286,8.624 21.652,8.258C23.153,6.757 23.06,6.844 23.066,6.844C24.156,5.754 24.36,4.109 23.678,2.811L24.158,2.417C24.581,2.07 25.116,1.877 25.664,1.875C26.945,1.864 28.062,2.905 28.062,4.264L28.062,15.986C27.102,15.986 1.889,15.986 0.938,15.986C0.42,15.986 0,16.406 0,16.924C0,17.442 0.42,17.861 0.938,17.861Z" fill="#FFFFFF"/>
<path d="M2.559,19.736L2.958,21.933C3.552,25.203 5.979,27.742 9.063,28.572L9.063,29.924C9.063,30.442 9.482,30.861 10,30.861C10.518,30.861 10.938,30.442 10.938,29.924L10.938,28.855C11.23,28.866 20.804,28.865 21.063,28.855L21.063,29.924C21.063,30.442 21.482,30.861 22,30.861C22.518,30.861 22.938,30.442 22.938,29.924L22.938,28.572C26.022,27.742 28.448,25.203 29.042,21.933L29.442,19.736L2.559,19.736L2.559,19.736Z" fill="#FFFFFF"/>
</svg>
