<svg width="36" height="34" viewBox="0 0 36 34" fill="none" xmlns="http://www.w3.org/2000/svg" xmlns:xlink="http://www.w3.org/1999/xlink">
<path d="M13.897,11.508C14.153,11.508 14.41,11.41 14.605,11.214L15.14,10.679C15.532,10.288 15.532,9.653 15.14,9.262C14.749,8.87 14.114,8.87 13.722,9.262L13.188,9.796C12.554,10.43 13.012,11.508 13.897,11.508Z" fill="#858585"/>
<path d="M18.173,12.042C18.429,12.042 18.686,11.944 18.881,11.748L19.416,11.214C19.808,10.822 19.808,10.187 19.416,9.796C19.025,9.404 18.39,9.404 17.998,9.796L17.464,10.331C16.83,10.964 17.288,12.042 18.173,12.042Z" fill="#858585"/>
<path d="M13.897,15.783C14.153,15.783 14.41,15.686 14.605,15.49L15.14,14.955C15.532,14.564 15.532,13.929 15.14,13.537C14.749,13.146 14.114,13.146 13.722,13.537L13.188,14.072C12.554,14.706 13.012,15.783 13.897,15.783Z" fill="#858585"/>
<path d="M1.002,20.058L33.205,20.058C33.758,20.058 34.207,19.61 34.207,19.056C34.207,18.503 33.758,18.054 33.205,18.054L32.002,18.054L32.002,5.524C32.002,3.006 29.966,0.966 27.445,0.966C26.392,0.966 25.365,1.334 24.553,2L23.924,2.516C22.515,1.687 20.669,1.877 19.461,3.085L17.949,4.596C17.557,4.988 17.557,5.622 17.949,6.013L21.728,9.793C22.119,10.184 22.754,10.184 23.145,9.793C24.75,8.188 24.651,8.281 24.657,8.281C25.822,7.116 26.04,5.358 25.311,3.971L25.824,3.549C26.277,3.178 26.848,2.972 27.434,2.97C28.803,2.958 29.998,4.071 29.998,5.524L29.998,18.054C28.971,18.054 2.019,18.054 1.002,18.054C0.449,18.054 0,18.503 0,19.056C0,19.61 0.449,20.058 1.002,20.058Z" fill="#858585"/>
<path d="M2.735,22.063L3.162,24.411C3.798,27.906 6.391,30.621 9.688,31.508L9.688,32.953C9.688,33.507 10.136,33.955 10.69,33.955C11.243,33.955 11.692,33.507 11.692,32.953L11.692,31.81C12.005,31.822 22.238,31.821 22.515,31.81L22.515,32.953C22.515,33.507 22.964,33.955 23.517,33.955C24.071,33.955 24.52,33.507 24.52,32.953L24.52,31.508C27.816,30.621 30.41,27.906 31.045,24.411L31.472,22.063L2.735,22.063L2.735,22.063Z" fill="#858585"/>
</svg>
