<svg width="34" height="32" viewBox="0 0 34 32" fill="none" xmlns="http://www.w3.org/2000/svg" xmlns:xlink="http://www.w3.org/1999/xlink">
<path d="M13.867,9.861C14.108,9.861 14.35,9.77 14.534,9.586L15.037,9.086C15.406,8.72 15.406,8.127 15.037,7.761C14.669,7.395 14.071,7.395 13.703,7.761L13.199,8.261C12.603,8.853 13.034,9.861 13.867,9.861Z" fill="#858585"/>
<path d="M17.892,10.361C18.133,10.361 18.375,10.27 18.559,10.086L19.062,9.586C19.431,9.22 19.431,8.627 19.062,8.261C18.694,7.895 18.096,7.895 17.728,8.261L17.225,8.761C16.628,9.353 17.059,10.361 17.892,10.361Z" fill="#858585"/>
<path d="M13.867,13.861C14.108,13.861 14.35,13.77 14.534,13.586L15.037,13.086C15.406,12.72 15.406,12.127 15.037,11.761C14.669,11.395 14.071,11.395 13.703,11.761L13.199,12.261C12.603,12.853 13.034,13.861 13.867,13.861Z" fill="#858585"/>
<path d="M1.725,17.861L32.047,17.861C32.569,17.861 32.991,17.441 32.991,16.924C32.991,16.406 32.569,15.986 32.047,15.986L30.915,15.986L30.915,4.264C30.915,1.909 28.997,0 26.624,0C25.632,0 24.665,0.344 23.901,0.967L23.308,1.45C21.982,0.675 20.243,0.852 19.106,1.982L17.682,3.396C17.314,3.763 17.314,4.356 17.682,4.722L21.241,8.258C21.609,8.624 22.207,8.624 22.575,8.258C24.086,6.757 23.993,6.844 23.999,6.844C25.096,5.754 25.301,4.109 24.614,2.811L25.098,2.417C25.524,2.07 26.062,1.877 26.613,1.875C27.902,1.864 29.028,2.905 29.028,4.264L29.028,15.986C28.061,15.986 2.683,15.986 1.725,15.986C1.204,15.986 0.781,16.406 0.781,16.924C0.781,17.441 1.204,17.861 1.725,17.861Z" fill="#858585"/>
<path d="M3.357,19.736L3.759,21.933C4.358,25.202 6.8,27.742 9.904,28.571L9.904,29.924C9.904,30.441 10.327,30.861 10.848,30.861C11.369,30.861 11.791,30.441 11.791,29.924L11.791,28.855C12.086,28.866 21.722,28.864 21.983,28.855L21.983,29.924C21.983,30.441 22.405,30.861 22.926,30.861C23.448,30.861 23.87,30.441 23.87,29.924L23.87,28.571C26.974,27.742 29.416,25.202 30.015,21.933L30.417,19.736L3.357,19.736L3.357,19.736Z" fill="#858585"/>
</svg>
