<svg width="30" height="28" viewBox="0 0 30 28" fill="none" xmlns="http://www.w3.org/2000/svg" xmlns:xlink="http://www.w3.org/1999/xlink">
<path d="M10.956,8.039C11.176,8.039 11.395,7.956 11.563,7.788L12.02,7.33C12.355,6.995 12.355,6.452 12.02,6.117C11.685,5.782 11.142,5.782 10.807,6.117L10.349,6.575C9.807,7.117 10.198,8.039 10.956,8.039Z" fill="#B7B7B7"/>
<path d="M14.616,8.497C14.835,8.497 15.055,8.413 15.222,8.245L15.68,7.788C16.015,7.452 16.015,6.909 15.68,6.574C15.345,6.239 14.802,6.239 14.466,6.574L14.009,7.032C13.467,7.574 13.858,8.497 14.616,8.497Z" fill="#B7B7B7"/>
<path d="M10.956,11.699C11.176,11.699 11.395,11.615 11.563,11.447L12.02,10.99C12.355,10.655 12.355,10.111 12.02,9.776C11.685,9.441 11.142,9.441 10.807,9.776L10.349,10.234C9.807,10.776 10.198,11.699 10.956,11.699Z" fill="#B7B7B7"/>
<path d="M-0.081,15.359L27.484,15.359C27.958,15.359 28.342,14.975 28.342,14.501C28.342,14.027 27.958,13.643 27.484,13.643L26.455,13.643L26.455,2.917C26.455,0.762 24.711,-0.984 22.554,-0.984C21.652,-0.984 20.773,-0.669 20.078,-0.099L19.539,0.343C18.334,-0.367 16.753,-0.205 15.719,0.829L14.425,2.123C14.09,2.458 14.09,3.002 14.425,3.337L17.66,6.572C17.995,6.907 18.538,6.907 18.873,6.572C20.247,5.198 20.162,5.278 20.167,5.278C21.164,4.281 21.351,2.775 20.727,1.588L21.166,1.227C21.554,0.909 22.043,0.733 22.544,0.731C23.716,0.721 24.739,1.674 24.739,2.917L24.739,13.643C23.86,13.643 0.789,13.643 -0.081,13.643C-0.555,13.643 -0.939,14.028 -0.939,14.501C-0.939,14.975 -0.555,15.359 -0.081,15.359Z" fill="#B7B7B7"/>
<path d="M1.402,17.075L1.768,19.085C2.312,22.077 4.532,24.4 7.354,25.16L7.354,26.397C7.354,26.871 7.738,27.255 8.212,27.255C8.685,27.255 9.07,26.871 9.07,26.397L9.07,25.419C9.337,25.429 18.097,25.428 18.334,25.419L18.334,26.397C18.334,26.871 18.718,27.255 19.192,27.255C19.666,27.255 20.05,26.871 20.05,26.397L20.05,25.16C22.872,24.4 25.092,22.077 25.636,19.085L26.001,17.075L1.402,17.075L1.402,17.075Z" fill="#B7B7B7"/>
</svg>
