<svg width="28" height="28" viewBox="0 0 28 28" fill="none" xmlns="http://www.w3.org/2000/svg" xmlns:xlink="http://www.w3.org/1999/xlink">
<path d="M10.313,8.204C10.519,8.204 10.724,8.126 10.881,7.969L11.309,7.541C11.622,7.228 11.622,6.72 11.309,6.406C10.995,6.093 10.487,6.093 10.174,6.406L9.746,6.834C9.239,7.341 9.605,8.204 10.313,8.204Z" fill="#858585"/>
<path d="M13.737,8.632C13.942,8.632 14.148,8.554 14.304,8.397L14.732,7.969C15.046,7.655 15.046,7.147 14.732,6.834C14.419,6.521 13.911,6.521 13.598,6.834L13.17,7.262C12.663,7.769 13.029,8.632 13.737,8.632Z" fill="#858585"/>
<path d="M10.313,11.628C10.519,11.628 10.724,11.55 10.881,11.393L11.309,10.965C11.622,10.652 11.622,10.143 11.309,9.83C10.995,9.517 10.487,9.517 10.174,9.83L9.746,10.258C9.239,10.765 9.605,11.628 10.313,11.628Z" fill="#858585"/>
<path d="M-0.012,15.052L25.775,15.052C26.218,15.052 26.578,14.693 26.578,14.25C26.578,13.807 26.218,13.447 25.775,13.447L24.812,13.447L24.812,3.413C24.812,1.397 23.181,-0.237 21.163,-0.237C20.32,-0.237 19.497,0.058 18.847,0.591L18.343,1.005C17.215,0.341 15.736,0.493 14.769,1.46L13.559,2.671C13.245,2.984 13.245,3.492 13.559,3.805L16.585,6.832C16.898,7.145 17.406,7.145 17.72,6.832C19.005,5.547 18.925,5.621 18.93,5.621C19.863,4.689 20.038,3.28 19.454,2.17L19.865,1.832C20.227,1.535 20.685,1.37 21.154,1.368C22.25,1.358 23.207,2.25 23.207,3.413L23.207,13.447C22.385,13.447 0.802,13.447 -0.012,13.447C-0.455,13.447 -0.814,13.807 -0.814,14.25C-0.814,14.693 -0.455,15.052 -0.012,15.052Z" fill="#858585"/>
<path d="M1.375,16.657L1.717,18.538C2.226,21.337 4.302,23.51 6.942,24.221L6.942,25.378C6.942,25.821 7.302,26.181 7.745,26.181C8.188,26.181 8.547,25.821 8.547,25.378L8.547,24.463C8.798,24.472 16.993,24.471 17.214,24.463L17.214,25.378C17.214,25.821 17.574,26.181 18.017,26.181C18.46,26.181 18.819,25.821 18.819,25.378L18.819,24.221C21.459,23.51 23.536,21.337 24.045,18.538L24.387,16.658L1.375,16.658L1.375,16.657Z" fill="#858585"/>
</svg>
