<svg width="36" height="34" viewBox="0 0 36 34" fill="none" xmlns="http://www.w3.org/2000/svg" xmlns:xlink="http://www.w3.org/1999/xlink">
<path d="M13.897,10.542C14.153,10.542 14.41,10.444 14.605,10.248L15.14,9.714C15.532,9.322 15.532,8.687 15.14,8.296C14.749,7.904 14.114,7.904 13.722,8.296L13.188,8.83C12.554,9.464 13.012,10.542 13.897,10.542Z" fill="#858585"/>
<path d="M18.173,11.076C18.429,11.076 18.686,10.979 18.881,10.783L19.416,10.248C19.808,9.857 19.808,9.222 19.416,8.83C19.025,8.439 18.39,8.439 17.998,8.83L17.464,9.365C16.83,9.998 17.288,11.076 18.173,11.076Z" fill="#858585"/>
<path d="M13.897,14.818C14.153,14.818 14.41,14.72 14.605,14.524L15.14,13.989C15.532,13.598 15.532,12.963 15.14,12.572C14.749,12.18 14.114,12.18 13.722,12.572L13.188,13.106C12.554,13.74 13.012,14.818 13.897,14.818Z" fill="#858585"/>
<path d="M1.002,19.093L33.205,19.093C33.758,19.093 34.207,18.644 34.207,18.091C34.207,17.537 33.758,17.089 33.205,17.089L32.002,17.089L32.002,4.558C32.002,2.041 29.966,0 27.445,0C26.392,0 25.365,0.368 24.553,1.034L23.924,1.551C22.515,0.722 20.669,0.911 19.461,2.119L17.949,3.631C17.557,4.022 17.557,4.657 17.949,5.048L21.728,8.827C22.119,9.219 22.754,9.219 23.145,8.827C24.75,7.223 24.651,7.316 24.657,7.316C25.822,6.151 26.04,4.392 25.311,3.005L25.824,2.584C26.277,2.213 26.848,2.007 27.434,2.004C28.803,1.992 29.998,3.105 29.998,4.558L29.998,17.089C28.971,17.089 2.019,17.089 1.002,17.089C0.449,17.089 0,17.537 0,18.091C0,18.644 0.449,19.093 1.002,19.093Z" fill="#858585"/>
<path d="M2.735,21.097L3.162,23.445C3.798,26.94 6.391,29.655 9.688,30.542L9.688,31.987C9.688,32.541 10.136,32.989 10.69,32.989C11.243,32.989 11.692,32.541 11.692,31.987L11.692,30.845C12.005,30.856 22.238,30.855 22.515,30.845L22.515,31.987C22.515,32.541 22.964,32.989 23.517,32.989C24.071,32.989 24.52,32.541 24.52,31.987L24.52,30.542C27.816,29.655 30.41,26.94 31.045,23.446L31.472,21.097L2.735,21.097L2.735,21.097Z" fill="#858585"/>
</svg>
