<svg width="36" height="34" viewBox="0 0 36 34" fill="none" xmlns="http://www.w3.org/2000/svg" xmlns:xlink="http://www.w3.org/1999/xlink">
<path d="M14.684,10.473C14.942,10.473 15.2,10.375 15.397,10.179L15.936,9.645C16.33,9.253 16.33,8.618 15.936,8.227C15.541,7.835 14.903,7.835 14.508,8.227L13.97,8.762C13.333,9.395 13.793,10.473 14.684,10.473Z" fill="#858585"/>
<path d="M18.988,11.007C19.246,11.007 19.504,10.91 19.701,10.714L20.239,10.179C20.633,9.788 20.633,9.153 20.239,8.761C19.845,8.37 19.206,8.37 18.812,8.761L18.274,9.296C17.637,9.93 18.097,11.007 18.988,11.007Z" fill="#858585"/>
<path d="M14.684,14.749C14.942,14.749 15.2,14.651 15.397,14.455L15.936,13.92C16.33,13.529 16.33,12.894 15.936,12.503C15.541,12.111 14.903,12.111 14.508,12.503L13.97,13.037C13.333,13.671 13.793,14.749 14.684,14.749Z" fill="#858585"/>
<path d="M1.705,19.024L34.118,19.024C34.676,19.024 35.127,18.575 35.127,18.022C35.127,17.468 34.676,17.02 34.118,17.02L32.908,17.02L32.908,4.489C32.908,1.972 30.858,-0.069 28.321,-0.069C27.261,-0.069 26.227,0.299 25.41,0.965L24.776,1.482C23.359,0.653 21.5,0.842 20.284,2.05L18.762,3.562C18.369,3.953 18.369,4.588 18.762,4.979L22.567,8.758C22.961,9.15 23.599,9.15 23.993,8.758C25.609,7.154 25.508,7.247 25.515,7.247C26.687,6.082 26.906,4.323 26.173,2.936L26.69,2.515C27.145,2.144 27.72,1.938 28.309,1.936C29.688,1.923 30.891,3.036 30.891,4.489L30.891,17.02C29.857,17.02 2.728,17.02 1.705,17.02C1.148,17.02 0.696,17.469 0.696,18.022C0.696,18.575 1.148,19.024 1.705,19.024Z" fill="#858585"/>
<path d="M3.449,21.028L3.879,23.377C4.518,26.872 7.129,29.586 10.447,30.473L10.447,31.919C10.447,32.472 10.899,32.921 11.456,32.921C12.013,32.921 12.465,32.472 12.465,31.919L12.465,30.776C12.78,30.788 23.08,30.786 23.359,30.776L23.359,31.919C23.359,32.472 23.81,32.921 24.368,32.921C24.925,32.921 25.376,32.472 25.376,31.919L25.376,30.473C28.695,29.586 31.305,26.872 31.945,23.377L32.374,21.029L3.449,21.029L3.449,21.028Z" fill="#858585"/>
</svg>
