<svg width="30" height="30" viewBox="0 0 30 30" fill="none" xmlns="http://www.w3.org/2000/svg" xmlns:xlink="http://www.w3.org/1999/xlink">
<path d="M10.956,10.012C11.176,10.012 11.395,9.929 11.563,9.761L12.02,9.303C12.355,8.968 12.355,8.425 12.02,8.09C11.685,7.755 11.142,7.755 10.807,8.09L10.349,8.547C9.807,9.09 10.198,10.012 10.956,10.012Z" fill="#858585"/>
<path d="M14.616,10.47C14.835,10.47 15.055,10.386 15.222,10.218L15.68,9.76C16.015,9.425 16.015,8.882 15.68,8.547C15.345,8.212 14.802,8.212 14.466,8.547L14.009,9.005C13.467,9.547 13.858,10.47 14.616,10.47Z" fill="#858585"/>
<path d="M10.956,13.673C11.176,13.673 11.395,13.589 11.563,13.421L12.02,12.963C12.355,12.628 12.355,12.085 12.02,11.75C11.685,11.415 11.142,11.415 10.807,11.75L10.349,12.208C9.807,12.75 10.198,13.673 10.956,13.673Z" fill="#858585"/>
<path d="M-0.081,17.332L27.484,17.332C27.958,17.332 28.342,16.948 28.342,16.474C28.342,16 27.958,15.616 27.484,15.616L26.455,15.616L26.455,4.89C26.455,2.735 24.711,0.988 22.554,0.988C21.652,0.988 20.773,1.303 20.078,1.874L19.539,2.316C18.334,1.606 16.753,1.768 15.719,2.802L14.425,4.096C14.09,4.431 14.09,4.974 14.425,5.309L17.66,8.545C17.995,8.88 18.538,8.88 18.873,8.545C20.247,7.171 20.162,7.251 20.167,7.251C21.164,6.254 21.351,4.748 20.727,3.561L21.166,3.2C21.554,2.882 22.043,2.706 22.544,2.704C23.716,2.694 24.739,3.647 24.739,4.89L24.739,15.616C23.86,15.616 0.789,15.616 -0.081,15.616C-0.555,15.616 -0.939,16 -0.939,16.474C-0.939,16.948 -0.555,17.332 -0.081,17.332Z" fill="#858585"/>
<path d="M1.402,19.048L1.768,21.058C2.312,24.05 4.532,26.373 7.354,27.133L7.354,28.37C7.354,28.844 7.738,29.228 8.212,29.228C8.685,29.228 9.07,28.844 9.07,28.37L9.07,27.392C9.337,27.402 18.097,27.401 18.334,27.392L18.334,28.37C18.334,28.844 18.718,29.228 19.192,29.228C19.666,29.228 20.05,28.844 20.05,28.37L20.05,27.133C22.872,26.373 25.092,24.05 25.636,21.058L26.001,19.048L1.402,19.048L1.402,19.048Z" fill="#858585"/>
</svg>
