<svg width="30" height="30" viewBox="0 0 30 30" fill="none" xmlns="http://www.w3.org/2000/svg" xmlns:xlink="http://www.w3.org/1999/xlink">
<path d="M10.956,9.986C11.176,9.986 11.395,9.902 11.563,9.735L12.02,9.277C12.355,8.942 12.355,8.398 12.02,8.063C11.685,7.728 11.142,7.728 10.807,8.063L10.349,8.521C9.807,9.063 10.198,9.986 10.956,9.986Z" fill="#858585"/>
<path d="M14.616,10.444C14.835,10.444 15.055,10.36 15.222,10.192L15.68,9.735C16.015,9.4 16.015,8.856 15.68,8.521C15.345,8.186 14.802,8.186 14.466,8.521L14.009,8.979C13.467,9.521 13.858,10.444 14.616,10.444Z" fill="#858585"/>
<path d="M10.956,13.646C11.176,13.646 11.395,13.563 11.563,13.395L12.02,12.937C12.355,12.602 12.355,12.059 12.02,11.724C11.685,11.389 11.142,11.389 10.807,11.724L10.349,12.181C9.807,12.724 10.198,13.646 10.956,13.646Z" fill="#858585"/>
<path d="M-0.081,17.305L27.484,17.305C27.958,17.305 28.342,16.921 28.342,16.448C28.342,15.974 27.958,15.59 27.484,15.59L26.455,15.59L26.455,4.864C26.455,2.709 24.711,0.962 22.554,0.962C21.652,0.962 20.773,1.277 20.078,1.847L19.539,2.289C18.334,1.58 16.753,1.742 15.719,2.776L14.425,4.07C14.09,4.405 14.09,4.948 14.425,5.283L17.66,8.518C17.995,8.853 18.538,8.853 18.873,8.518C20.247,7.144 20.162,7.224 20.167,7.224C21.164,6.227 21.351,4.722 20.727,3.534L21.166,3.174C21.554,2.856 22.043,2.68 22.544,2.678C23.716,2.667 24.739,3.62 24.739,4.864L24.739,15.59C23.86,15.59 0.789,15.59 -0.081,15.59C-0.555,15.59 -0.939,15.974 -0.939,16.448C-0.939,16.921 -0.555,17.305 -0.081,17.305Z" fill="#858585"/>
<path d="M1.402,19.021L1.768,21.031C2.312,24.023 4.532,26.347 7.354,27.106L7.354,28.343C7.354,28.817 7.738,29.201 8.212,29.201C8.685,29.201 9.07,28.817 9.07,28.343L9.07,27.365C9.337,27.375 18.097,27.374 18.334,27.365L18.334,28.343C18.334,28.817 18.718,29.201 19.192,29.201C19.666,29.201 20.05,28.817 20.05,28.343L20.05,27.106C22.872,26.347 25.092,24.023 25.636,21.031L26.001,19.021L1.402,19.021L1.402,19.021Z" fill="#858585"/>
</svg>
