<svg width="28" height="28" viewBox="0 0 28 28" fill="none" xmlns="http://www.w3.org/2000/svg" xmlns:xlink="http://www.w3.org/1999/xlink">
<path d="M10.313,8.348C10.519,8.348 10.724,8.27 10.881,8.113L11.309,7.685C11.622,7.372 11.622,6.864 11.309,6.55C10.995,6.237 10.487,6.237 10.174,6.55L9.746,6.978C9.239,7.485 9.605,8.348 10.313,8.348Z" fill="#858585"/>
<path d="M13.737,8.776C13.942,8.776 14.148,8.698 14.304,8.541L14.732,8.113C15.046,7.8 15.046,7.291 14.732,6.978C14.419,6.665 13.911,6.665 13.598,6.978L13.17,7.406C12.663,7.913 13.029,8.776 13.737,8.776Z" fill="#858585"/>
<path d="M10.313,11.772C10.519,11.772 10.724,11.694 10.881,11.537L11.309,11.109C11.622,10.796 11.622,10.288 11.309,9.974C10.995,9.661 10.487,9.661 10.174,9.974L9.746,10.402C9.239,10.909 9.605,11.772 10.313,11.772Z" fill="#858585"/>
<path d="M-0.012,15.196L25.775,15.196C26.218,15.196 26.578,14.837 26.578,14.393C26.578,13.95 26.218,13.591 25.775,13.591L24.812,13.591L24.812,3.557C24.812,1.541 23.181,-0.093 21.163,-0.093C20.32,-0.093 19.497,0.201 18.847,0.735L18.343,1.148C17.215,0.485 15.736,0.636 14.769,1.604L13.559,2.814C13.245,3.127 13.245,3.636 13.559,3.949L16.585,6.975C16.898,7.289 17.406,7.289 17.72,6.975C19.005,5.69 18.925,5.765 18.93,5.765C19.863,4.832 20.038,3.424 19.454,2.313L19.865,1.976C20.227,1.679 20.685,1.514 21.154,1.512C22.25,1.502 23.207,2.393 23.207,3.557L23.207,13.591C22.385,13.591 0.802,13.591 -0.012,13.591C-0.455,13.591 -0.814,13.95 -0.814,14.393C-0.814,14.837 -0.455,15.196 -0.012,15.196Z" fill="#858585"/>
<path d="M1.375,16.801L1.717,18.682C2.226,21.48 4.302,23.654 6.942,24.364L6.942,25.522C6.942,25.965 7.302,26.324 7.745,26.324C8.188,26.324 8.547,25.965 8.547,25.522L8.547,24.607C8.798,24.616 16.993,24.615 17.214,24.607L17.214,25.522C17.214,25.965 17.574,26.324 18.017,26.324C18.46,26.324 18.819,25.965 18.819,25.522L18.819,24.364C21.459,23.654 23.536,21.48 24.045,18.682L24.387,16.801L1.375,16.801L1.375,16.801Z" fill="#858585"/>
</svg>
