<svg width="52" height="52" viewBox="0 0 52 52" fill="none" xmlns="http://www.w3.org/2000/svg" xmlns:xlink="http://www.w3.org/1999/xlink">
<path d="M16.912,39.92L7.862,41.931L9.873,32.882C8.549,30.404 7.858,27.637 7.862,24.828C7.862,15.381 15.519,7.724 24.966,7.724C34.412,7.724 42.069,15.381 42.069,24.828C42.069,34.274 34.412,41.931 24.966,41.931C22.156,41.935 19.389,41.244 16.912,39.92L16.912,39.92ZM17.408,36.306L18.524,36.904C20.506,37.963 22.719,38.515 24.966,38.51C27.672,38.51 30.317,37.708 32.567,36.204C34.817,34.701 36.571,32.564 37.607,30.064C38.642,27.564 38.913,24.812 38.385,22.158C37.857,19.504 36.554,17.066 34.641,15.152C32.727,13.239 30.289,11.936 27.635,11.408C24.981,10.88 22.23,11.151 19.729,12.186C17.229,13.222 15.092,14.976 13.589,17.226C12.085,19.476 11.283,22.121 11.283,24.828C11.283,27.109 11.839,29.305 12.891,31.269L13.487,32.386L12.367,37.426L17.408,36.306L17.408,36.306Z" fill="#FFFFFF"/>
<circle cx="35.655" cy="14.138" r="6.414" fill="#FA0E0E"/>
</svg>
