<svg width="48" height="48" viewBox="0 0 48 48" fill="none" xmlns="http://www.w3.org/2000/svg" xmlns:xlink="http://www.w3.org/1999/xlink">
<path d="M16.466,38.118L8,40L9.882,31.534C8.642,29.217 7.996,26.628 8,24C8,15.163 15.163,8 24,8C32.837,8 40,15.163 40,24C40,32.837 32.837,40 24,40C21.372,40.004 18.783,39.358 16.466,38.118L16.466,38.118ZM16.93,34.738L17.974,35.298C19.828,36.288 21.898,36.804 24,36.8C26.532,36.8 29.006,36.049 31.111,34.643C33.216,33.236 34.857,31.237 35.826,28.898C36.794,26.559 37.048,23.986 36.554,21.503C36.06,19.02 34.841,16.739 33.051,14.949C31.261,13.159 28.98,11.94 26.497,11.446C24.014,10.952 21.441,11.206 19.102,12.174C16.763,13.143 14.764,14.784 13.357,16.889C11.951,18.994 11.2,21.468 11.2,24C11.2,26.134 11.72,28.189 12.704,30.026L13.262,31.07L12.214,35.786L16.93,34.738L16.93,34.738Z" fill="#FFFFFF"/>
<circle cx="34" cy="14" r="6" fill="#FA0E0E"/>
</svg>
