<svg width="44" height="46" viewBox="0 0 44 46" fill="none" xmlns="http://www.w3.org/2000/svg" xmlns:xlink="http://www.w3.org/1999/xlink">
<path d="M32.357,18.799C32.357,15.9 31.205,13.119 29.155,11.069C27.105,9.019 24.324,7.867 21.425,7.867C18.525,7.867 15.745,9.019 13.695,11.069C11.645,13.119 10.493,15.9 10.493,18.799L10.493,33.375L32.357,33.375L32.357,18.799ZM36.001,34.59L36.729,35.561C36.831,35.697 36.893,35.858 36.908,36.026C36.923,36.195 36.891,36.364 36.815,36.515C36.74,36.667 36.623,36.794 36.48,36.883C36.336,36.972 36.17,37.019 36.001,37.019L6.849,37.019C6.68,37.019 6.514,36.972 6.37,36.883C6.226,36.794 6.11,36.667 6.034,36.515C5.959,36.364 5.926,36.195 5.942,36.026C5.957,35.858 6.019,35.697 6.12,35.561L6.849,34.59L6.849,18.799C6.849,14.933 8.385,11.226 11.118,8.492C13.852,5.759 17.559,4.223 21.425,4.223C25.291,4.223 28.998,5.759 31.731,8.492C34.465,11.226 36.001,14.933 36.001,18.799L36.001,34.59ZM16.87,38.841L25.98,38.841C25.98,40.049 25.5,41.207 24.646,42.062C23.791,42.916 22.633,43.396 21.425,43.396C20.217,43.396 19.058,42.916 18.204,42.062C17.35,41.207 16.87,40.049 16.87,38.841L16.87,38.841Z" fill="#000000"/>
<circle cx="35.179" cy="11.819" r="7.32" fill="#FA0E0E"/>
</svg>
