<svg width="48" height="48" viewBox="0 0 48 48" fill="none" xmlns="http://www.w3.org/2000/svg" xmlns:xlink="http://www.w3.org/1999/xlink">
<path d="M32.941,20.042C32.941,17.378 31.9,14.822 30.046,12.938C28.193,11.054 25.68,9.996 23.059,9.996C20.438,9.996 17.924,11.054 16.071,12.938C14.217,14.822 13.176,17.378 13.176,20.042L13.176,33.438L32.941,33.438L32.941,20.042ZM36.235,34.555L36.894,35.447C36.986,35.571 37.042,35.719 37.055,35.874C37.069,36.029 37.04,36.185 36.972,36.324C36.903,36.463 36.798,36.58 36.668,36.661C36.538,36.743 36.388,36.787 36.235,36.787L9.882,36.787C9.729,36.787 9.579,36.743 9.449,36.661C9.319,36.58 9.214,36.463 9.146,36.324C9.077,36.185 9.048,36.029 9.062,35.874C9.076,35.719 9.132,35.571 9.223,35.447L9.882,34.555L9.882,20.042C9.882,16.49 11.27,13.082 13.741,10.57C16.212,8.058 19.564,6.647 23.059,6.647C26.553,6.647 29.905,8.058 32.376,10.57C34.847,13.082 36.235,16.49 36.235,20.042L36.235,34.555ZM18.941,38.461L27.176,38.461C27.176,39.571 26.742,40.636 25.97,41.421C25.198,42.206 24.151,42.647 23.059,42.647C21.967,42.647 20.919,42.206 20.147,41.421C19.375,40.636 18.941,39.571 18.941,38.461L18.941,38.461Z" fill="#FFFFFF"/>
<circle cx="32" cy="10" r="6" fill="#FA0E0E"/>
</svg>
