<svg width="52" height="52" viewBox="0 0 52 52" fill="none" xmlns="http://www.w3.org/2000/svg" xmlns:xlink="http://www.w3.org/1999/xlink">
<path d="M34.523,20.873C34.523,18.024 33.41,15.293 31.429,13.279C29.448,11.265 26.761,10.133 23.959,10.133C21.158,10.133 18.471,11.265 16.49,13.279C14.508,15.293 13.396,18.024 13.396,20.873L13.396,35.192L34.523,35.192L34.523,20.873ZM38.045,36.386L38.749,37.34C38.847,37.473 38.907,37.631 38.921,37.796C38.936,37.962 38.905,38.128 38.832,38.277C38.759,38.425 38.646,38.55 38.507,38.638C38.368,38.725 38.208,38.772 38.045,38.772L9.874,38.772C9.711,38.772 9.55,38.725 9.411,38.638C9.272,38.55 9.16,38.425 9.087,38.277C9.014,38.128 8.983,37.962 8.997,37.796C9.012,37.631 9.072,37.473 9.17,37.34L9.874,36.386L9.874,20.873C9.874,17.075 11.358,13.433 14,10.747C16.641,8.062 20.224,6.553 23.959,6.553C27.695,6.553 31.278,8.062 33.919,10.747C36.561,13.433 38.045,17.075 38.045,20.873L38.045,36.386ZM19.558,40.561L28.361,40.561C28.361,41.748 27.897,42.886 27.072,43.726C26.246,44.565 25.127,45.036 23.959,45.036C22.792,45.036 21.672,44.565 20.847,43.726C20.022,42.886 19.558,41.748 19.558,40.561L19.558,40.561Z" fill="#FFFFFF"/>
<circle cx="33.517" cy="10.138" r="6.414" fill="#FA0E0E"/>
</svg>
