<svg width="42" height="42" viewBox="0 0 42 42" fill="none" xmlns="http://www.w3.org/2000/svg" xmlns:xlink="http://www.w3.org/1999/xlink">
<path d="M30.849,17.586C30.849,14.874 29.772,12.273 27.854,10.355C25.936,8.437 23.335,7.359 20.622,7.359C17.91,7.359 15.309,8.437 13.391,10.355C11.473,12.273 10.396,14.874 10.396,17.586L10.396,31.222L30.849,31.222L30.849,17.586ZM34.258,32.358L34.94,33.267C35.035,33.393 35.092,33.544 35.107,33.702C35.121,33.859 35.091,34.018 35.02,34.159C34.949,34.301 34.841,34.42 34.706,34.503C34.571,34.586 34.416,34.63 34.258,34.63L6.987,34.63C6.829,34.63 6.674,34.586 6.539,34.503C6.404,34.42 6.296,34.301 6.225,34.159C6.154,34.018 6.124,33.859 6.138,33.702C6.152,33.544 6.21,33.393 6.305,33.267L6.987,32.358L6.987,17.586C6.987,13.97 8.424,10.502 10.981,7.944C13.538,5.387 17.006,3.951 20.622,3.951C24.239,3.951 27.707,5.387 30.264,7.944C32.821,10.502 34.258,13.97 34.258,17.586L34.258,32.358ZM16.361,36.335L24.884,36.335C24.884,37.465 24.435,38.549 23.635,39.348C22.836,40.147 21.753,40.596 20.622,40.596C19.492,40.596 18.409,40.147 17.609,39.348C16.81,38.549 16.361,37.465 16.361,36.335L16.361,36.335Z" fill="#000000"/>
<circle cx="33.489" cy="11.056" r="6.848" fill="#FA0E0E"/>
</svg>
