<svg width="52" height="52" viewBox="0 0 52 52" fill="none" xmlns="http://www.w3.org/2000/svg" xmlns:xlink="http://www.w3.org/1999/xlink">
<path d="M38.138,21.793C38.138,18.391 36.786,15.128 34.381,12.723C31.975,10.317 28.712,8.966 25.31,8.966C21.908,8.966 18.645,10.317 16.24,12.723C13.834,15.128 12.483,18.391 12.483,21.793L12.483,38.896L38.138,38.896L38.138,21.793ZM42.414,40.322L43.269,41.462C43.388,41.621 43.46,41.81 43.478,42.007C43.496,42.205 43.459,42.404 43.37,42.581C43.281,42.759 43.145,42.908 42.976,43.013C42.807,43.117 42.612,43.172 42.414,43.172L8.207,43.172C8.008,43.172 7.814,43.117 7.645,43.013C7.476,42.908 7.339,42.759 7.251,42.581C7.162,42.404 7.124,42.205 7.142,42.007C7.16,41.81 7.232,41.621 7.352,41.462L8.207,40.322L8.207,21.793C8.207,17.257 10.009,12.907 13.216,9.699C16.424,6.492 20.774,4.69 25.31,4.69C29.846,4.69 34.197,6.492 37.404,9.699C40.612,12.907 42.414,17.257 42.414,21.793L42.414,40.322ZM19.965,45.31L30.655,45.31C30.655,46.728 30.092,48.087 29.09,49.09C28.087,50.092 26.728,50.655 25.31,50.655C23.893,50.655 22.533,50.092 21.531,49.09C20.529,48.087 19.965,46.728 19.965,45.31L19.965,45.31Z" fill="#000000"/>
<circle cx="38.138" cy="13.241" r="8.552" fill="#FA0E0E"/>
</svg>
