<svg width="30" height="26" viewBox="0 0 30 26" fill="none" xmlns="http://www.w3.org/2000/svg" xmlns:xlink="http://www.w3.org/1999/xlink">
<path d="M29.715,10.871L29.715,24.047L26.786,24.047L26.786,19.655L3.362,19.655L3.362,24.047L0.433,24.047L0.433,0.622L3.362,0.622L3.362,15.263L15.074,15.263L15.074,5.014L23.858,5.014C25.412,5.014 26.901,5.631 27.999,6.73C29.098,7.828 29.715,9.318 29.715,10.871ZM9.218,13.799C8.053,13.799 6.936,13.336 6.112,12.512C5.288,11.689 4.826,10.572 4.826,9.407C4.826,8.242 5.288,7.125 6.112,6.301C6.936,5.477 8.053,5.014 9.218,5.014C10.383,5.014 11.5,5.477 12.324,6.301C13.147,7.125 13.61,8.242 13.61,9.407C13.61,10.572 13.147,11.689 12.324,12.512C11.5,13.336 10.383,13.799 9.218,13.799Z" fill="#858585"/>
</svg>
