<svg width="24" height="24" viewBox="0 0 24 24" fill="none" xmlns="http://www.w3.org/2000/svg" xmlns:xlink="http://www.w3.org/1999/xlink">
<path d="M23.999,17.892L23.999,22.607C23.999,22.944 23.871,23.269 23.641,23.516C23.411,23.763 23.095,23.914 22.759,23.937C22.176,23.977 21.7,23.999 21.332,23.999C9.55,23.999 0,14.449 0,2.667C0,2.299 0.02,1.823 0.061,1.24C0.085,0.903 0.235,0.588 0.482,0.358C0.729,0.128 1.054,0 1.392,0L6.106,0C6.272,0 6.431,0.061 6.554,0.172C6.677,0.283 6.754,0.435 6.77,0.6C6.801,0.907 6.829,1.151 6.856,1.336C7.121,3.185 7.664,4.984 8.466,6.67C8.593,6.937 8.51,7.256 8.27,7.426L5.393,9.482C7.152,13.581 10.419,16.848 14.518,18.607L16.571,15.735C16.655,15.618 16.777,15.534 16.917,15.497C17.057,15.461 17.205,15.475 17.335,15.536C19.022,16.338 20.82,16.879 22.668,17.143C22.853,17.17 23.097,17.199 23.401,17.228C23.566,17.245 23.718,17.322 23.828,17.445C23.939,17.568 24,17.727 24,17.892L23.999,17.892Z" fill="#FFFFFF"/>
</svg>
