<svg width="36" height="28" viewBox="0 0 36 28" fill="none" xmlns="http://www.w3.org/2000/svg" xmlns:xlink="http://www.w3.org/1999/xlink">
<path d="M34.482,11.214L34.482,26.607L31.062,26.607L31.062,21.476L3.696,21.476L3.696,26.607L0.276,26.607L0.276,-0.759L3.696,-0.759L3.696,16.345L17.379,16.345L17.379,4.372L27.641,4.372C29.456,4.372 31.196,5.093 32.479,6.376C33.762,7.659 34.482,9.399 34.482,11.214ZM10.538,14.634C9.177,14.634 7.872,14.094 6.91,13.132C5.947,12.169 5.407,10.864 5.407,9.503C5.407,8.143 5.947,6.837 6.91,5.875C7.872,4.913 9.177,4.372 10.538,4.372C11.899,4.372 13.204,4.913 14.166,5.875C15.128,6.837 15.669,8.143 15.669,9.503C15.669,10.864 15.128,12.169 14.166,13.132C13.204,14.094 11.899,14.634 10.538,14.634Z" fill="#858585"/>
</svg>
