<svg width="36" height="34" viewBox="0 0 36 34" fill="none" xmlns="http://www.w3.org/2000/svg" xmlns:xlink="http://www.w3.org/1999/xlink">
<path d="M16.966,33.793C7.519,33.793 -0.138,26.136 -0.138,16.689C-0.138,7.243 7.519,-0.414 16.966,-0.414C26.412,-0.414 34.069,7.243 34.069,16.689C34.069,26.136 26.412,33.793 16.966,33.793ZM16.966,30.372C20.594,30.372 24.075,28.931 26.641,26.365C29.207,23.799 30.648,20.318 30.648,16.689C30.648,13.06 29.207,9.58 26.641,7.014C24.075,4.448 20.594,3.007 16.966,3.007C13.337,3.007 9.856,4.448 7.29,7.014C4.724,9.58 3.283,13.06 3.283,16.689C3.283,20.318 4.724,23.799 7.29,26.365C9.856,28.931 13.337,30.372 16.966,30.372L16.966,30.372ZM15.255,21.82L18.676,21.82L18.676,25.241L15.255,25.241L15.255,21.82ZM18.676,19.007L18.676,20.11L15.255,20.11L15.255,17.545C15.255,17.091 15.435,16.656 15.756,16.335C16.077,16.014 16.512,15.834 16.966,15.834C17.451,15.834 17.927,15.696 18.338,15.436C18.748,15.176 19.077,14.805 19.284,14.366C19.492,13.927 19.571,13.438 19.512,12.955C19.452,12.473 19.257,12.018 18.949,11.642C18.641,11.266 18.233,10.986 17.771,10.833C17.31,10.68 16.815,10.662 16.344,10.78C15.872,10.897 15.444,11.147 15.109,11.498C14.773,11.85 14.545,12.289 14.45,12.766L11.094,12.094C11.302,11.054 11.782,10.088 12.486,9.295C13.19,8.502 14.091,7.909 15.099,7.579C16.106,7.248 17.184,7.191 18.22,7.414C19.257,7.636 20.216,8.129 21,8.844C21.783,9.558 22.363,10.468 22.68,11.48C22.997,12.492 23.039,13.57 22.803,14.603C22.566,15.637 22.06,16.589 21.335,17.363C20.609,18.137 19.692,18.704 18.676,19.007L18.676,19.007Z" fill="#FFFFFF"/>
</svg>
