<svg width="32" height="34" viewBox="0 0 32 34" fill="none" xmlns="http://www.w3.org/2000/svg" xmlns:xlink="http://www.w3.org/1999/xlink">
<path d="M32,31.525C32,31.996 31.813,32.448 31.479,32.782C31.146,33.115 30.694,33.303 30.222,33.303L1.778,33.303C1.306,33.303 0.854,33.115 0.521,32.782C0.187,32.448 0,31.996 0,31.525L0,12.84C0,12.569 0.062,12.302 0.18,12.059C0.299,11.815 0.472,11.602 0.686,11.436L14.908,0.375C15.221,0.132 15.605,0 16,0C16.395,0 16.779,0.132 17.092,0.375L31.314,11.436C31.528,11.602 31.701,11.815 31.82,12.059C31.938,12.302 32,12.569 32,12.84L32,31.525L32,31.525ZM28.444,29.747L28.444,13.708L16,4.03L3.556,13.708L3.556,29.747L28.444,29.747ZM7.111,22.636L24.889,22.636L24.889,26.191L7.111,26.191L7.111,22.636Z" fill="#0A8ED9"/>
</svg>
