<svg width="32" height="30" viewBox="0 0 32 30" fill="none" xmlns="http://www.w3.org/2000/svg" xmlns:xlink="http://www.w3.org/1999/xlink">
<path d="M24.555,20.824L30.911,26.996L28.811,29.036L22.456,22.862C20.092,24.703 17.151,25.704 14.121,25.7C6.748,25.7 0.765,19.888 0.765,12.727C0.765,5.566 6.748,-0.246 14.121,-0.246C21.493,-0.246 27.477,5.566 27.477,12.727C27.481,15.671 26.45,18.527 24.555,20.824ZM21.578,19.754C23.461,17.873 24.513,15.351 24.509,12.727C24.509,7.152 19.859,2.637 14.121,2.637C8.381,2.637 3.733,7.152 3.733,12.727C3.733,18.301 8.381,22.817 14.121,22.817C16.822,22.821 19.418,21.8 21.355,19.97L21.578,19.754L21.578,19.754Z" fill="#838383"/>
</svg>
