<svg width="36" height="28" viewBox="0 0 36 28" fill="none" xmlns="http://www.w3.org/2000/svg" xmlns:xlink="http://www.w3.org/1999/xlink">
<path d="M34.482,11.145L34.482,26.538L31.062,26.538L31.062,21.407L3.696,21.407L3.696,26.538L0.276,26.538L0.276,-0.828L3.696,-0.828L3.696,16.276L17.379,16.276L17.379,4.303L27.641,4.303C29.456,4.303 31.196,5.024 32.479,6.307C33.762,7.59 34.482,9.33 34.482,11.145ZM10.538,14.565C9.177,14.565 7.872,14.025 6.91,13.063C5.947,12.1 5.407,10.795 5.407,9.434C5.407,8.073 5.947,6.768 6.91,5.806C7.872,4.844 9.177,4.303 10.538,4.303C11.899,4.303 13.204,4.844 14.166,5.806C15.128,6.768 15.669,8.073 15.669,9.434C15.669,10.795 15.128,12.1 14.166,13.063C13.204,14.025 11.899,14.565 10.538,14.565Z" fill="#B7B7B7"/>
</svg>
