<svg width="18" height="22" viewBox="0 0 18 22" fill="none" xmlns="http://www.w3.org/2000/svg" xmlns:xlink="http://www.w3.org/1999/xlink">
<path d="M9.332,21.297L3.279,15.28C2.081,14.09 1.266,12.573 0.936,10.923C0.606,9.272 0.775,7.561 1.423,6.006C2.071,4.451 3.168,3.122 4.576,2.187C5.984,1.252 7.639,0.753 9.332,0.753C11.025,0.753 12.68,1.252 14.087,2.187C15.495,3.122 16.592,4.451 17.24,6.006C17.888,7.561 18.057,9.272 17.727,10.923C17.397,12.573 16.582,14.09 15.384,15.28L9.332,21.297ZM14.04,13.943C14.971,13.017 15.605,11.838 15.861,10.554C16.118,9.27 15.986,7.939 15.482,6.73C14.979,5.521 14.125,4.487 13.03,3.76C11.935,3.033 10.648,2.644 9.332,2.644C8.015,2.644 6.728,3.033 5.633,3.76C4.538,4.487 3.685,5.521 3.181,6.73C2.677,7.939 2.545,9.27 2.802,10.554C3.058,11.838 3.692,13.017 4.624,13.943L9.332,18.623L14.04,13.943L14.04,13.943ZM9.332,11.154C8.827,11.154 8.343,10.954 7.986,10.6C7.63,10.245 7.429,9.764 7.429,9.262C7.429,8.761 7.63,8.28 7.986,7.925C8.343,7.571 8.827,7.371 9.332,7.371C9.836,7.371 10.32,7.571 10.677,7.925C11.033,8.28 11.234,8.761 11.234,9.262C11.234,9.764 11.033,10.245 10.677,10.6C10.32,10.954 9.836,11.154 9.332,11.154Z" fill="#FFFFFF"/>
</svg>
