<svg width="20" height="22" viewBox="0 0 20 22" fill="none" xmlns="http://www.w3.org/2000/svg" xmlns:xlink="http://www.w3.org/1999/xlink">
<path d="M9.964,21.939L3.494,15.507C2.214,14.235 1.343,12.614 0.99,10.85C0.637,9.085 0.818,7.256 1.511,5.594C2.203,3.932 3.376,2.511 4.881,1.512C6.386,0.512 8.155,-0.021 9.964,-0.021C11.774,-0.021 13.543,0.512 15.048,1.512C16.553,2.511 17.726,3.932 18.418,5.594C19.111,7.256 19.292,9.085 18.939,10.85C18.586,12.614 17.714,14.235 16.435,15.507L9.964,21.939ZM14.997,14.078C15.992,13.089 16.67,11.828 16.945,10.455C17.219,9.083 17.078,7.661 16.54,6.368C16.001,5.075 15.089,3.97 13.918,3.193C12.748,2.415 11.372,2 9.964,2C8.557,2 7.181,2.415 6.011,3.193C4.84,3.97 3.928,5.075 3.389,6.368C2.851,7.661 2.71,9.083 2.984,10.455C3.259,11.828 3.937,13.089 4.932,14.078L9.964,19.081L14.997,14.078L14.997,14.078ZM9.964,11.096C9.425,11.096 8.908,10.883 8.527,10.504C8.145,10.125 7.931,9.611 7.931,9.075C7.931,8.539 8.145,8.025 8.527,7.646C8.908,7.266 9.425,7.053 9.964,7.053C10.504,7.053 11.021,7.266 11.402,7.646C11.784,8.025 11.998,8.539 11.998,9.075C11.998,9.611 11.784,10.125 11.402,10.504C11.021,10.883 10.504,11.096 9.964,11.096Z" fill="#FFFFFF"/>
</svg>
