<svg width="26" height="34" viewBox="0 0 26 34" fill="none" xmlns="http://www.w3.org/2000/svg" xmlns:xlink="http://www.w3.org/1999/xlink">
<path d="M1.742,0.276L24.19,0.276C24.615,0.276 25.023,0.445 25.324,0.746C25.625,1.046 25.794,1.454 25.794,1.879L25.794,32.574C25.794,32.717 25.755,32.858 25.683,32.982C25.61,33.105 25.506,33.207 25.38,33.276C25.255,33.346 25.113,33.38 24.97,33.376C24.826,33.373 24.687,33.33 24.565,33.254L12.966,25.979L1.367,33.252C1.245,33.329 1.106,33.371 0.963,33.375C0.82,33.379 0.678,33.345 0.553,33.275C0.427,33.206 0.323,33.104 0.25,32.981C0.177,32.858 0.139,32.717 0.138,32.574L0.138,1.879C0.138,1.454 0.307,1.046 0.608,0.746C0.909,0.445 1.317,0.276 1.742,0.276ZM22.587,3.483L3.345,3.483L3.345,28.227L12.966,22.197L22.587,28.227L22.587,3.483Z" fill="#FFFFFF"/>
</svg>
