<svg width="22" height="28" viewBox="0 0 22 28" fill="none" xmlns="http://www.w3.org/2000/svg" xmlns:xlink="http://www.w3.org/1999/xlink">
<path d="M11.241,26.483L3.682,18.968C2.187,17.482 1.169,15.589 0.756,13.527C0.344,11.466 0.556,9.329 1.365,7.387C2.174,5.446 3.544,3.786 5.302,2.618C7.06,1.451 9.126,0.827 11.241,0.827C13.355,0.827 15.422,1.451 17.18,2.618C18.937,3.786 20.308,5.446 21.117,7.387C21.926,9.329 22.137,11.466 21.725,13.527C21.312,15.589 20.294,17.482 18.799,18.968L11.241,26.483ZM17.12,17.299C18.283,16.143 19.074,14.67 19.395,13.067C19.716,11.463 19.551,9.802 18.922,8.291C18.293,6.781 17.227,5.49 15.86,4.582C14.492,3.674 12.885,3.189 11.241,3.189C9.596,3.189 7.989,3.674 6.622,4.582C5.254,5.49 4.189,6.781 3.559,8.291C2.93,9.802 2.765,11.463 3.086,13.067C3.407,14.67 4.199,16.143 5.361,17.299L11.241,23.143L17.12,17.299L17.12,17.299ZM11.241,13.816C10.611,13.816 10.006,13.567 9.561,13.124C9.115,12.681 8.865,12.08 8.865,11.454C8.865,10.828 9.115,10.227 9.561,9.784C10.006,9.341 10.611,9.093 11.241,9.093C11.871,9.093 12.475,9.341 12.92,9.784C13.366,10.227 13.616,10.828 13.616,11.454C13.616,12.08 13.366,12.681 12.92,13.124C12.475,13.567 11.871,13.816 11.241,13.816Z" fill="#FFFFFF"/>
</svg>
