<svg width="20" height="24" viewBox="0 0 20 24" fill="none" xmlns="http://www.w3.org/2000/svg" xmlns:xlink="http://www.w3.org/1999/xlink">
<path d="M10,24L2.929,16.971C1.53,15.58 0.578,13.809 0.192,11.88C-0.194,9.952 0.004,7.953 0.761,6.137C1.518,4.32 2.8,2.768 4.444,1.675C6.089,0.583 8.022,0 10,0C11.978,0 13.911,0.583 15.556,1.675C17.2,2.768 18.482,4.32 19.239,6.137C19.996,7.953 20.194,9.952 19.808,11.88C19.422,13.809 18.47,15.58 17.071,16.971L10,24ZM15.5,15.409C16.588,14.327 17.328,12.95 17.628,11.45C17.928,9.95 17.774,8.395 17.186,6.983C16.597,5.57 15.6,4.362 14.321,3.513C13.042,2.663 11.538,2.21 10,2.21C8.462,2.21 6.958,2.663 5.679,3.513C4.4,4.362 3.403,5.57 2.814,6.983C2.226,8.395 2.072,9.95 2.372,11.45C2.672,12.95 3.412,14.327 4.5,15.409L10,20.876L15.5,15.409L15.5,15.409ZM10,12.15C9.411,12.15 8.845,11.917 8.429,11.503C8.012,11.089 7.778,10.527 7.778,9.941C7.778,9.355 8.012,8.793 8.429,8.379C8.845,7.965 9.411,7.732 10,7.732C10.589,7.732 11.155,7.965 11.571,8.379C11.988,8.793 12.222,9.355 12.222,9.941C12.222,10.527 11.988,11.089 11.571,11.503C11.155,11.917 10.589,12.15 10,12.15Z" fill="#FFFFFF"/>
</svg>
