<svg width="32" height="26" viewBox="0 0 32 26" fill="none" xmlns="http://www.w3.org/2000/svg" xmlns:xlink="http://www.w3.org/1999/xlink">
<path d="M32,11.2L32,25.6L28.8,25.6L28.8,20.8L3.2,20.8L3.2,25.6L0,25.6L0,0L3.2,0L3.2,16L16,16L16,4.8L25.6,4.8C27.297,4.8 28.925,5.474 30.125,6.675C31.326,7.875 32,9.503 32,11.2ZM9.6,14.4C8.327,14.4 7.106,13.894 6.206,12.994C5.306,12.094 4.8,10.873 4.8,9.6C4.8,8.327 5.306,7.106 6.206,6.206C7.106,5.306 8.327,4.8 9.6,4.8C10.873,4.8 12.094,5.306 12.994,6.206C13.894,7.106 14.4,8.327 14.4,9.6C14.4,10.873 13.894,12.094 12.994,12.994C12.094,13.894 10.873,14.4 9.6,14.4Z" fill="#858585"/>
</svg>
