<svg width="30" height="30" viewBox="0 0 30 30" fill="none" xmlns="http://www.w3.org/2000/svg" xmlns:xlink="http://www.w3.org/1999/xlink">
<path d="M5.704,23.183C6.006,22.326 6.567,21.583 7.309,21.058C8.051,20.533 8.938,20.251 9.847,20.251C10.756,20.251 11.643,20.533 12.385,21.058C13.127,21.583 13.688,22.326 13.99,23.183L28.88,23.183L28.88,26.111L13.99,26.111C13.688,26.968 13.127,27.711 12.385,28.236C11.643,28.761 10.756,29.043 9.847,29.043C8.938,29.043 8.051,28.761 7.309,28.236C6.567,27.711 6.006,26.968 5.704,26.111L-0.402,26.111L-0.402,23.183L5.704,23.183ZM14.488,12.935C14.79,12.077 15.351,11.335 16.093,10.81C16.835,10.285 17.722,10.003 18.631,10.003C19.54,10.003 20.427,10.285 21.169,10.81C21.911,11.335 22.472,12.077 22.774,12.935L28.88,12.935L28.88,15.863L22.774,15.863C22.472,16.72 21.911,17.462 21.169,17.987C20.427,18.512 19.54,18.794 18.631,18.794C17.722,18.794 16.835,18.512 16.093,17.987C15.351,17.462 14.79,16.72 14.488,15.863L-0.402,15.863L-0.402,12.935L14.488,12.935ZM5.704,2.686C6.006,1.829 6.567,1.087 7.309,0.561C8.051,0.036 8.938,-0.246 9.847,-0.246C10.756,-0.246 11.643,0.036 12.385,0.561C13.127,1.087 13.688,1.829 13.99,2.686L28.88,2.686L28.88,5.614L13.99,5.614C13.688,6.471 13.127,7.214 12.385,7.739C11.643,8.264 10.756,8.546 9.847,8.546C8.938,8.546 8.051,8.264 7.309,7.739C6.567,7.214 6.006,6.471 5.704,5.614L-0.402,5.614L-0.402,2.686L5.704,2.686ZM9.847,5.614C10.235,5.614 10.607,5.46 10.882,5.185C11.157,4.911 11.311,4.538 11.311,4.15C11.311,3.762 11.157,3.389 10.882,3.115C10.607,2.84 10.235,2.686 9.847,2.686C9.459,2.686 9.086,2.84 8.812,3.115C8.537,3.389 8.383,3.762 8.383,4.15C8.383,4.538 8.537,4.911 8.812,5.185C9.086,5.46 9.459,5.614 9.847,5.614L9.847,5.614ZM18.631,15.863C19.019,15.863 19.392,15.708 19.666,15.434C19.941,15.159 20.095,14.787 20.095,14.399C20.095,14.01 19.941,13.638 19.666,13.363C19.392,13.089 19.019,12.935 18.631,12.935C18.243,12.935 17.87,13.089 17.596,13.363C17.321,13.638 17.167,14.01 17.167,14.399C17.167,14.787 17.321,15.159 17.596,15.434C17.87,15.708 18.243,15.863 18.631,15.863L18.631,15.863ZM9.847,26.111C10.235,26.111 10.607,25.957 10.882,25.682C11.157,25.408 11.311,25.035 11.311,24.647C11.311,24.259 11.157,23.886 10.882,23.612C10.607,23.337 10.235,23.183 9.847,23.183C9.459,23.183 9.086,23.337 8.812,23.612C8.537,23.886 8.383,24.259 8.383,24.647C8.383,25.035 8.537,25.408 8.812,25.682C9.086,25.957 9.459,26.111 9.847,26.111L9.847,26.111Z" fill="#FFFFFF"/>
</svg>
