<svg width="36" height="34" viewBox="0 0 36 34" fill="none" xmlns="http://www.w3.org/2000/svg" xmlns:xlink="http://www.w3.org/1999/xlink">
<path d="M7.157,2.401L9.118,5.204C6.735,6.873 4.945,9.258 4.009,12.014C3.074,14.769 3.041,17.752 3.916,20.527C4.791,23.302 6.528,25.726 8.875,27.447C11.221,29.168 14.055,30.096 16.966,30.096C19.875,30.096 22.71,29.168 25.056,27.447C27.403,25.726 29.14,23.302 30.015,20.527C30.89,17.752 30.857,14.769 29.922,12.014C28.986,9.258 27.196,6.873 24.813,5.204L26.774,2.401C29.028,3.977 30.869,6.074 32.139,8.513C33.409,10.953 34.071,13.663 34.069,16.414C34.069,25.86 26.412,33.517 16.966,33.517C7.519,33.517 -0.138,25.86 -0.138,16.414C-0.14,13.663 0.522,10.953 1.792,8.513C3.062,6.074 4.903,3.977 7.157,2.401L7.157,2.401ZM15.255,16.414L15.255,-0.69L18.676,-0.69L18.676,16.414L15.255,16.414Z" fill="#FFFFFF"/>
</svg>
