<svg width="30" height="26" viewBox="0 0 30 26" fill="none" xmlns="http://www.w3.org/2000/svg" xmlns:xlink="http://www.w3.org/1999/xlink">
<path d="M29.715,10.924L29.715,24.101L26.786,24.101L26.786,19.709L3.362,19.709L3.362,24.101L0.433,24.101L0.433,0.676L3.362,0.676L3.362,15.316L15.074,15.316L15.074,5.068L23.858,5.068C25.412,5.068 26.901,5.685 27.999,6.783C29.098,7.882 29.715,9.371 29.715,10.924ZM9.218,13.852C8.053,13.852 6.936,13.39 6.112,12.566C5.288,11.742 4.826,10.625 4.826,9.46C4.826,8.295 5.288,7.178 6.112,6.355C6.936,5.531 8.053,5.068 9.218,5.068C10.383,5.068 11.5,5.531 12.324,6.355C13.147,7.178 13.61,8.295 13.61,9.46C13.61,10.625 13.147,11.742 12.324,12.566C11.5,13.39 10.383,13.852 9.218,13.852Z" fill="#B7B7B7"/>
</svg>
