<svg width="32" height="34" viewBox="0 0 32 34" fill="none" xmlns="http://www.w3.org/2000/svg" xmlns:xlink="http://www.w3.org/1999/xlink">
<path d="M1.624,24.904C0.922,23.691 0.376,22.393 0,21.043C0.819,20.626 1.507,19.992 1.987,19.208C2.468,18.425 2.722,17.525 2.723,16.606C2.723,15.687 2.469,14.786 1.989,14.003C1.509,13.219 0.822,12.584 0.003,12.166C0.754,9.453 2.183,6.975 4.155,4.967C4.926,5.468 5.82,5.745 6.738,5.77C7.657,5.794 8.564,5.564 9.36,5.104C10.156,4.645 10.809,3.974 11.247,3.166C11.686,2.358 11.892,1.445 11.843,0.528C14.569,-0.177 17.43,-0.176 20.155,0.531C20.107,1.448 20.314,2.362 20.752,3.169C21.191,3.977 21.844,4.647 22.64,5.106C23.436,5.565 24.344,5.795 25.262,5.771C26.181,5.746 27.075,5.468 27.845,4.967C28.806,5.946 29.659,7.06 30.376,8.303C31.095,9.547 31.633,10.843 32,12.165C31.181,12.581 30.493,13.216 30.013,13.999C29.532,14.783 29.278,15.683 29.277,16.602C29.277,17.521 29.531,18.422 30.011,19.205C30.491,19.989 31.178,20.624 31.997,21.041C31.246,23.755 29.817,26.233 27.845,28.241C27.074,27.74 26.18,27.462 25.262,27.438C24.343,27.414 23.436,27.644 22.64,28.104C21.844,28.563 21.191,29.234 20.753,30.042C20.314,30.849 20.108,31.763 20.157,32.68C17.431,33.385 14.57,33.384 11.845,32.677C11.893,31.759 11.686,30.846 11.248,30.039C10.809,29.231 10.156,28.561 9.36,28.102C8.564,27.642 7.656,27.412 6.738,27.437C5.819,27.462 4.925,27.74 4.155,28.241C3.174,27.24 2.323,26.119 1.624,24.904ZM11.02,25.23C12.789,26.25 14.119,27.888 14.755,29.828C15.583,29.906 16.415,29.908 17.243,29.83C17.88,27.889 19.211,26.251 20.98,25.231C22.749,24.208 24.833,23.874 26.832,24.293C27.314,23.616 27.729,22.894 28.074,22.139C26.712,20.617 25.959,18.646 25.961,16.604C25.961,14.512 26.741,12.558 28.074,11.069C27.726,10.314 27.309,9.593 26.829,8.914C24.831,9.333 22.748,9 20.98,7.978C19.211,6.958 17.881,5.32 17.245,3.38C16.417,3.302 15.585,3.3 14.757,3.378C14.12,5.319 12.789,6.956 11.02,7.976C9.251,9 7.167,9.334 5.168,8.914C4.687,9.592 4.272,10.314 3.926,11.069C5.288,12.591 6.041,14.562 6.039,16.604C6.039,18.696 5.259,20.65 3.926,22.139C4.274,22.894 4.691,23.615 5.171,24.293C7.169,23.875 9.252,24.208 11.02,25.23ZM16,21.584C14.679,21.584 13.412,21.059 12.478,20.125C11.544,19.192 11.02,17.925 11.02,16.604C11.02,15.283 11.544,14.016 12.478,13.082C13.412,12.148 14.679,11.624 16,11.624C17.321,11.624 18.588,12.148 19.522,13.082C20.456,14.016 20.98,15.283 20.98,16.604C20.98,17.925 20.456,19.192 19.522,20.125C18.588,21.059 17.321,21.584 16,21.584ZM16,18.264C16.44,18.264 16.863,18.089 17.174,17.778C17.485,17.466 17.66,17.044 17.66,16.604C17.66,16.164 17.485,15.741 17.174,15.43C16.863,15.119 16.44,14.944 16,14.944C15.56,14.944 15.137,15.119 14.826,15.43C14.515,15.741 14.34,16.164 14.34,16.604C14.34,17.044 14.515,17.466 14.826,17.778C15.137,18.089 15.56,18.264 16,18.264Z" fill="#FFFFFF"/>
</svg>
