<svg width="28" height="22" viewBox="0 0 28 22" fill="none" xmlns="http://www.w3.org/2000/svg" xmlns:xlink="http://www.w3.org/1999/xlink">
<path d="M27.412,8.918L27.412,21.244L24.672,21.244L24.672,17.136L2.759,17.136L2.759,21.244L0.02,21.244L0.02,-0.669L2.759,-0.669L2.759,13.027L13.716,13.027L13.716,3.44L21.933,3.44C23.386,3.44 24.78,4.017 25.807,5.044C26.834,6.072 27.412,7.465 27.412,8.918ZM8.237,11.657C7.147,11.657 6.102,11.224 5.332,10.454C4.561,9.683 4.128,8.638 4.128,7.548C4.128,6.459 4.561,5.414 5.332,4.643C6.102,3.873 7.147,3.44 8.237,3.44C9.327,3.44 10.372,3.873 11.143,4.643C11.913,5.414 12.346,6.459 12.346,7.548C12.346,8.638 11.913,9.683 11.143,10.454C10.372,11.224 9.327,11.657 8.237,11.657Z" fill="#858585"/>
</svg>
