<svg width="32" height="32" viewBox="0 0 32 32" fill="none" xmlns="http://www.w3.org/2000/svg" xmlns:xlink="http://www.w3.org/1999/xlink">
<path d="M16,32C7.163,32 0,24.837 0,16C0,7.163 7.163,0 16,0C24.837,0 32,7.163 32,16C32,24.837 24.837,32 16,32ZM16,28.8C19.395,28.8 22.651,27.451 25.051,25.051C27.451,22.651 28.8,19.395 28.8,16C28.8,12.605 27.451,9.35 25.051,6.949C22.651,4.549 19.395,3.2 16,3.2C12.605,3.2 9.35,4.549 6.949,6.949C4.549,9.35 3.2,12.605 3.2,16C3.2,19.395 4.549,22.651 6.949,25.051C9.35,27.451 12.605,28.8 16,28.8L16,28.8ZM14.4,20.8L17.6,20.8L17.6,24L14.4,24L14.4,20.8ZM17.6,18.168L17.6,19.2L14.4,19.2L14.4,16.8C14.4,16.376 14.569,15.969 14.869,15.669C15.169,15.369 15.576,15.2 16,15.2C16.455,15.2 16.9,15.071 17.284,14.828C17.668,14.585 17.975,14.237 18.169,13.827C18.364,13.416 18.437,12.958 18.382,12.507C18.326,12.056 18.144,11.63 17.856,11.278C17.568,10.927 17.185,10.664 16.754,10.522C16.322,10.379 15.859,10.361 15.418,10.472C14.977,10.582 14.577,10.815 14.263,11.144C13.949,11.473 13.735,11.884 13.646,12.33L10.507,11.701C10.702,10.728 11.151,9.825 11.809,9.083C12.468,8.34 13.311,7.787 14.254,7.477C15.196,7.168 16.204,7.115 17.174,7.323C18.144,7.53 19.041,7.992 19.774,8.661C20.507,9.329 21.049,10.18 21.346,11.127C21.642,12.073 21.682,13.082 21.461,14.049C21.239,15.015 20.766,15.906 20.087,16.63C19.409,17.354 18.551,17.885 17.6,18.168L17.6,18.168Z" fill="#FFFFFF"/>
</svg>
