<svg width="20" height="22" viewBox="0 0 20 22" fill="none" xmlns="http://www.w3.org/2000/svg" xmlns:xlink="http://www.w3.org/1999/xlink">
<path d="M9.77,21.939L3.3,15.507C2.02,14.235 1.149,12.614 0.796,10.85C0.443,9.085 0.624,7.256 1.316,5.594C2.009,3.932 3.182,2.511 4.687,1.512C6.191,0.512 7.96,-0.021 9.77,-0.021C11.58,-0.021 13.349,0.512 14.854,1.512C16.359,2.511 17.531,3.932 18.224,5.594C18.917,7.256 19.098,9.085 18.745,10.85C18.392,12.614 17.52,14.235 16.241,15.507L9.77,21.939ZM14.803,14.078C15.798,13.089 16.476,11.828 16.75,10.455C17.025,9.083 16.884,7.661 16.345,6.368C15.807,5.075 14.894,3.97 13.724,3.193C12.554,2.415 11.178,2 9.77,2C8.363,2 6.987,2.415 5.816,3.193C4.646,3.97 3.734,5.075 3.195,6.368C2.656,7.661 2.515,9.083 2.79,10.455C3.065,11.828 3.742,13.089 4.738,14.078L9.77,19.081L14.803,14.078L14.803,14.078ZM9.77,11.096C9.231,11.096 8.714,10.883 8.332,10.504C7.951,10.125 7.737,9.611 7.737,9.075C7.737,8.539 7.951,8.025 8.332,7.646C8.714,7.266 9.231,7.053 9.77,7.053C10.31,7.053 10.827,7.266 11.208,7.646C11.589,8.025 11.804,8.539 11.804,9.075C11.804,9.611 11.589,10.125 11.208,10.504C10.827,10.883 10.31,11.096 9.77,11.096Z" fill="#FFFFFF"/>
</svg>
