<svg width="18" height="22" viewBox="0 0 18 22" fill="none" xmlns="http://www.w3.org/2000/svg" xmlns:xlink="http://www.w3.org/1999/xlink">
<path d="M8.48,21.297L2.427,15.28C1.23,14.09 0.415,12.573 0.084,10.923C-0.246,9.272 -0.076,7.561 0.572,6.006C1.219,4.451 2.317,3.122 3.724,2.187C5.132,1.252 6.787,0.753 8.48,0.753C10.173,0.753 11.828,1.252 13.236,2.187C14.643,3.122 15.74,4.451 16.388,6.006C17.036,7.561 17.206,9.272 16.875,10.923C16.545,12.573 15.73,14.09 14.533,15.28L8.48,21.297ZM13.188,13.943C14.119,13.017 14.753,11.838 15.01,10.554C15.267,9.27 15.135,7.939 14.631,6.73C14.127,5.521 13.274,4.487 12.179,3.76C11.084,3.033 9.797,2.644 8.48,2.644C7.163,2.644 5.876,3.033 4.781,3.76C3.686,4.487 2.833,5.521 2.329,6.73C1.825,7.939 1.693,9.27 1.95,10.554C2.207,11.838 2.841,13.017 3.772,13.943L8.48,18.623L13.188,13.943L13.188,13.943ZM8.48,11.154C7.975,11.154 7.492,10.954 7.135,10.6C6.778,10.245 6.578,9.764 6.578,9.263C6.578,8.761 6.778,8.28 7.135,7.925C7.492,7.571 7.975,7.372 8.48,7.372C8.984,7.372 9.468,7.571 9.825,7.925C10.182,8.28 10.382,8.761 10.382,9.263C10.382,9.764 10.182,10.245 9.825,10.6C9.468,10.954 8.984,11.154 8.48,11.154Z" fill="#FFFFFF"/>
</svg>
