<svg width="34" height="28" viewBox="0 0 34 28" fill="none" xmlns="http://www.w3.org/2000/svg" xmlns:xlink="http://www.w3.org/1999/xlink">
<path d="M33.805,12.179L33.805,27.572L30.362,27.572L30.362,22.441L2.817,22.441L2.817,27.572L-0.626,27.572L-0.626,0.207L2.817,0.207L2.817,17.31L16.59,17.31L16.59,5.338L26.919,5.338C28.745,5.338 30.497,6.059 31.788,7.342C33.08,8.625 33.805,10.365 33.805,12.179ZM9.703,15.6C8.334,15.6 7.02,15.059 6.051,14.097C5.083,13.135 4.539,11.83 4.539,10.469C4.539,9.108 5.083,7.803 6.051,6.841C7.02,5.878 8.334,5.338 9.703,5.338C11.073,5.338 12.387,5.878 13.355,6.841C14.324,7.803 14.868,9.108 14.868,10.469C14.868,11.83 14.324,13.135 13.355,14.097C12.387,15.059 11.073,15.6 9.703,15.6Z" fill="#858585"/>
</svg>
