<svg width="32" height="26" viewBox="0 0 32 26" fill="none" xmlns="http://www.w3.org/2000/svg" xmlns:xlink="http://www.w3.org/1999/xlink">
<path d="M31.495,11.2L31.495,25.6L28.274,25.6L28.274,20.8L2.506,20.8L2.506,25.6L-0.715,25.6L-0.715,0L2.506,0L2.506,16L15.39,16L15.39,4.8L25.053,4.8C26.762,4.8 28.4,5.474 29.608,6.675C30.816,7.875 31.495,9.503 31.495,11.2ZM8.948,14.4C7.667,14.4 6.438,13.894 5.532,12.994C4.626,12.094 4.117,10.873 4.117,9.6C4.117,8.327 4.626,7.106 5.532,6.206C6.438,5.306 7.667,4.8 8.948,4.8C10.229,4.8 11.458,5.306 12.364,6.206C13.271,7.106 13.78,8.327 13.78,9.6C13.78,10.873 13.271,12.094 12.364,12.994C11.458,13.894 10.229,14.4 8.948,14.4Z" fill="#858585"/>
</svg>
