<svg width="24" height="32" viewBox="0 0 24 32" fill="none" xmlns="http://www.w3.org/2000/svg" xmlns:xlink="http://www.w3.org/1999/xlink">
<path d="M24,31.5L21,31.5L21,28.5C21,27.307 20.526,26.162 19.682,25.318C18.838,24.474 17.693,24 16.5,24L7.5,24C6.307,24 5.162,24.474 4.318,25.318C3.474,26.162 3,27.307 3,28.5L3,31.5L0,31.5L0,28.5C0,26.511 0.79,24.603 2.197,23.197C3.603,21.79 5.511,21 7.5,21L16.5,21C18.489,21 20.397,21.79 21.803,23.197C23.21,24.603 24,26.511 24,28.5L24,31.5ZM12,18C10.818,18 9.648,17.767 8.556,17.315C7.464,16.863 6.472,16.2 5.636,15.364C4.8,14.528 4.137,13.536 3.685,12.444C3.233,11.352 3,10.182 3,9C3,7.818 3.233,6.648 3.685,5.556C4.137,4.464 4.8,3.472 5.636,2.636C6.472,1.8 7.464,1.137 8.556,0.685C9.648,0.233 10.818,0 12,0C14.387,0 16.676,0.948 18.364,2.636C20.052,4.324 21,6.613 21,9C21,11.387 20.052,13.676 18.364,15.364C16.676,17.052 14.387,18 12,18L12,18ZM12,15C13.591,15 15.117,14.368 16.243,13.243C17.368,12.117 18,10.591 18,9C18,7.409 17.368,5.883 16.243,4.757C15.117,3.632 13.591,3 12,3C10.409,3 8.883,3.632 7.757,4.757C6.632,5.883 6,7.409 6,9C6,10.591 6.632,12.117 7.757,13.243C8.883,14.368 10.409,15 12,15L12,15Z" fill="#FFFFFF"/>
</svg>
