<svg width="36" height="28" viewBox="0 0 36 28" fill="none" xmlns="http://www.w3.org/2000/svg" xmlns:xlink="http://www.w3.org/1999/xlink">
<path d="M34.552,11.145L34.552,26.538L31.131,26.538L31.131,21.407L3.765,21.407L3.765,26.538L0.345,26.538L0.345,-0.827L3.765,-0.827L3.765,16.276L17.448,16.276L17.448,4.304L27.71,4.304C29.525,4.304 31.265,5.024 32.548,6.307C33.831,7.59 34.552,9.331 34.552,11.145ZM10.607,14.566C9.246,14.566 7.941,14.025 6.979,13.063C6.016,12.101 5.476,10.796 5.476,9.435C5.476,8.074 6.016,6.769 6.979,5.806C7.941,4.844 9.246,4.304 10.607,4.304C11.968,4.304 13.273,4.844 14.235,5.806C15.197,6.769 15.738,8.074 15.738,9.435C15.738,10.796 15.197,12.101 14.235,13.063C13.273,14.025 11.968,14.566 10.607,14.566Z" fill="#FFFFFF"/>
</svg>
