<svg width="30" height="38" viewBox="0 0 30 38" fill="none" xmlns="http://www.w3.org/2000/svg" xmlns:xlink="http://www.w3.org/1999/xlink">
<path d="M14.966,36.268L4.383,25.686C2.29,23.593 0.865,20.926 0.288,18.023C-0.29,15.12 0.006,12.111 1.139,9.376C2.272,6.642 4.19,4.304 6.651,2.66C9.112,1.016 12.006,0.138 14.966,0.138C17.925,0.138 20.819,1.016 23.28,2.66C25.741,4.304 27.659,6.642 28.792,9.376C29.925,12.111 30.221,15.12 29.643,18.023C29.066,20.926 27.641,23.593 25.548,25.686L14.966,36.268ZM23.197,23.334C24.824,21.707 25.933,19.632 26.382,17.375C26.831,15.117 26.6,12.776 25.719,10.65C24.838,8.523 23.346,6.705 21.432,5.426C19.518,4.147 17.268,3.464 14.966,3.464C12.663,3.464 10.413,4.147 8.499,5.426C6.585,6.705 5.093,8.523 4.212,10.65C3.331,12.776 3.1,15.117 3.549,17.375C3.998,19.632 5.107,21.707 6.734,23.334L14.966,31.565L23.197,23.334L23.197,23.334ZM14.966,18.429C14.084,18.429 13.238,18.079 12.614,17.455C11.99,16.831 11.64,15.985 11.64,15.103C11.64,14.221 11.99,13.375 12.614,12.752C13.238,12.128 14.084,11.778 14.966,11.778C15.848,11.778 16.693,12.128 17.317,12.752C17.941,13.375 18.291,14.221 18.291,15.103C18.291,15.985 17.941,16.831 17.317,17.455C16.693,18.079 15.848,18.429 14.966,18.429Z" fill="#FFFFFF"/>
</svg>
