<svg width="28" height="24" viewBox="0 0 28 24" fill="none" xmlns="http://www.w3.org/2000/svg" xmlns:xlink="http://www.w3.org/1999/xlink">
<path d="M27.412,9.703L27.412,22.03L24.672,22.03L24.672,17.921L2.759,17.921L2.759,22.03L0.02,22.03L0.02,0.116L2.759,0.116L2.759,13.812L13.716,13.812L13.716,4.225L21.933,4.225C23.386,4.225 24.78,4.802 25.807,5.83C26.834,6.857 27.412,8.25 27.412,9.703ZM8.237,12.443C7.147,12.443 6.102,12.01 5.332,11.239C4.561,10.469 4.128,9.424 4.128,8.334C4.128,7.244 4.561,6.199 5.332,5.428C6.102,4.658 7.147,4.225 8.237,4.225C9.327,4.225 10.372,4.658 11.143,5.428C11.913,6.199 12.346,7.244 12.346,8.334C12.346,9.424 11.913,10.469 11.143,11.239C10.372,12.01 9.327,12.443 8.237,12.443Z" fill="#B7B7B7"/>
</svg>
