<svg width="32" height="34" viewBox="0 0 32 34" fill="none" xmlns="http://www.w3.org/2000/svg" xmlns:xlink="http://www.w3.org/1999/xlink">
<path d="M6.672,25.604C7.003,24.667 7.616,23.856 8.427,23.282C9.238,22.708 10.207,22.4 11.2,22.4C12.193,22.4 13.162,22.708 13.973,23.282C14.784,23.856 15.397,24.667 15.728,25.604L32,25.604L32,28.804L15.728,28.804C15.397,29.741 14.784,30.552 13.973,31.126C13.162,31.7 12.193,32.008 11.2,32.008C10.207,32.008 9.238,31.7 8.427,31.126C7.616,30.552 7.003,29.741 6.672,28.804L0,28.804L0,25.604L6.672,25.604ZM16.272,14.404C16.603,13.467 17.216,12.656 18.027,12.082C18.838,11.508 19.807,11.2 20.8,11.2C21.793,11.2 22.762,11.508 23.573,12.082C24.384,12.656 24.997,13.467 25.328,14.404L32,14.404L32,17.604L25.328,17.604C24.997,18.541 24.384,19.352 23.573,19.926C22.762,20.5 21.793,20.808 20.8,20.808C19.807,20.808 18.838,20.5 18.027,19.926C17.216,19.352 16.603,18.541 16.272,17.604L0,17.604L0,14.404L16.272,14.404ZM6.672,3.204C7.003,2.267 7.616,1.456 8.427,0.882C9.238,0.308 10.207,0 11.2,0C12.193,0 13.162,0.308 13.973,0.882C14.784,1.456 15.397,2.267 15.728,3.204L32,3.204L32,6.404L15.728,6.404C15.397,7.341 14.784,8.152 13.973,8.726C13.162,9.3 12.193,9.608 11.2,9.608C10.207,9.608 9.238,9.3 8.427,8.726C7.616,8.152 7.003,7.341 6.672,6.404L0,6.404L0,3.204L6.672,3.204ZM11.2,6.404C11.624,6.404 12.031,6.235 12.331,5.935C12.631,5.635 12.8,5.228 12.8,4.804C12.8,4.38 12.631,3.973 12.331,3.673C12.031,3.372 11.624,3.204 11.2,3.204C10.776,3.204 10.369,3.372 10.069,3.673C9.769,3.973 9.6,4.38 9.6,4.804C9.6,5.228 9.769,5.635 10.069,5.935C10.369,6.235 10.776,6.404 11.2,6.404L11.2,6.404ZM20.8,17.604C21.224,17.604 21.631,17.435 21.931,17.135C22.231,16.835 22.4,16.428 22.4,16.004C22.4,15.58 22.231,15.173 21.931,14.873C21.631,14.572 21.224,14.404 20.8,14.404C20.376,14.404 19.969,14.572 19.669,14.873C19.369,15.173 19.2,15.58 19.2,16.004C19.2,16.428 19.369,16.835 19.669,17.135C19.969,17.435 20.376,17.604 20.8,17.604L20.8,17.604ZM11.2,28.804C11.624,28.804 12.031,28.635 12.331,28.335C12.631,28.035 12.8,27.628 12.8,27.204C12.8,26.78 12.631,26.373 12.331,26.073C12.031,25.772 11.624,25.604 11.2,25.604C10.776,25.604 10.369,25.772 10.069,26.073C9.769,26.373 9.6,26.78 9.6,27.204C9.6,27.628 9.769,28.035 10.069,28.335C10.369,28.635 10.776,28.804 11.2,28.804L11.2,28.804Z" fill="#FFFFFF"/>
</svg>
