<svg width="30" height="30" viewBox="0 0 30 30" fill="none" xmlns="http://www.w3.org/2000/svg" xmlns:xlink="http://www.w3.org/1999/xlink">
<path d="M6.69,22.526C6.973,21.724 7.497,21.029 8.192,20.538C8.886,20.047 9.715,19.783 10.566,19.783C11.416,19.783 12.246,20.047 12.94,20.538C13.634,21.029 14.159,21.724 14.442,22.526L28.371,22.526L28.371,25.265L14.442,25.265C14.159,26.067 13.634,26.761 12.94,27.253C12.246,27.744 11.416,28.008 10.566,28.008C9.715,28.008 8.886,27.744 8.192,27.253C7.497,26.761 6.973,26.067 6.69,25.265L0.979,25.265L0.979,22.526L6.69,22.526ZM14.907,12.939C15.19,12.137 15.715,11.442 16.409,10.951C17.103,10.46 17.933,10.196 18.783,10.196C19.634,10.196 20.463,10.46 21.158,10.951C21.852,11.442 22.376,12.137 22.659,12.939L28.371,12.939L28.371,15.678L22.659,15.678C22.376,16.48 21.852,17.174 21.158,17.665C20.463,18.157 19.634,18.42 18.783,18.42C17.933,18.42 17.103,18.157 16.409,17.665C15.715,17.174 15.19,16.48 14.907,15.678L0.979,15.678L0.979,12.939L14.907,12.939ZM6.69,3.351C6.973,2.549 7.497,1.855 8.192,1.364C8.886,0.873 9.715,0.609 10.566,0.609C11.416,0.609 12.246,0.873 12.94,1.364C13.634,1.855 14.159,2.549 14.442,3.351L28.371,3.351L28.371,6.091L14.442,6.091C14.159,6.892 13.634,7.587 12.94,8.078C12.246,8.569 11.416,8.833 10.566,8.833C9.715,8.833 8.886,8.569 8.192,8.078C7.497,7.587 6.973,6.892 6.69,6.091L0.979,6.091L0.979,3.351L6.69,3.351ZM10.566,6.091C10.929,6.091 11.277,5.946 11.534,5.689C11.791,5.433 11.935,5.084 11.935,4.721C11.935,4.358 11.791,4.009 11.534,3.752C11.277,3.496 10.929,3.351 10.566,3.351C10.202,3.351 9.854,3.496 9.597,3.752C9.34,4.009 9.196,4.358 9.196,4.721C9.196,5.084 9.34,5.433 9.597,5.689C9.854,5.946 10.202,6.091 10.566,6.091L10.566,6.091ZM18.783,15.678C19.147,15.678 19.495,15.533 19.752,15.277C20.009,15.02 20.153,14.671 20.153,14.308C20.153,13.945 20.009,13.597 19.752,13.34C19.495,13.083 19.147,12.939 18.783,12.939C18.42,12.939 18.072,13.083 17.815,13.34C17.558,13.597 17.414,13.945 17.414,14.308C17.414,14.671 17.558,15.02 17.815,15.277C18.072,15.533 18.42,15.678 18.783,15.678L18.783,15.678ZM10.566,25.265C10.929,25.265 11.277,25.121 11.534,24.864C11.791,24.607 11.935,24.259 11.935,23.895C11.935,23.532 11.791,23.184 11.534,22.927C11.277,22.67 10.929,22.526 10.566,22.526C10.202,22.526 9.854,22.67 9.597,22.927C9.34,23.184 9.196,23.532 9.196,23.895C9.196,24.259 9.34,24.607 9.597,24.864C9.854,25.121 10.202,25.265 10.566,25.265L10.566,25.265Z" fill="#FFFFFF"/>
</svg>
