<svg width="34" height="32" viewBox="0 0 34 32" fill="none" xmlns="http://www.w3.org/2000/svg" xmlns:xlink="http://www.w3.org/1999/xlink">
<path d="M25.18,23.026L32.126,29.771L29.831,32L22.887,25.253C20.303,27.265 17.089,28.359 13.778,28.355C5.721,28.355 -0.818,22.003 -0.818,14.177C-0.818,6.351 5.721,0 13.778,0C21.834,0 28.373,6.351 28.373,14.177C28.378,17.394 27.252,20.516 25.18,23.026ZM21.927,21.857C23.985,19.801 25.135,17.045 25.13,14.177C25.13,8.084 20.049,3.151 13.778,3.151C7.505,3.151 2.425,8.084 2.425,14.177C2.425,20.269 7.505,25.204 13.778,25.204C16.73,25.209 19.567,24.092 21.684,22.093L21.927,21.857L21.927,21.857Z" fill="#838383"/>
</svg>
