<svg width="36" height="34" viewBox="0 0 36 34" fill="none" xmlns="http://www.w3.org/2000/svg" xmlns:xlink="http://www.w3.org/1999/xlink">
<path d="M28.571,23.648L35.996,30.859L33.543,33.241L26.12,26.029C23.358,28.18 19.922,29.35 16.382,29.345C7.769,29.345 0.78,22.555 0.78,14.19C0.78,5.824 7.769,-0.965 16.382,-0.965C24.995,-0.965 31.985,5.824 31.985,14.19C31.99,17.628 30.785,20.965 28.571,23.648ZM25.094,22.399C27.294,20.201 28.522,17.255 28.517,14.19C28.517,7.676 23.086,2.402 16.382,2.402C9.676,2.402 4.247,7.676 4.247,14.19C4.247,20.701 9.676,25.977 16.382,25.977C19.538,25.982 22.571,24.788 24.834,22.651L25.094,22.399L25.094,22.399Z" fill="#838383"/>
</svg>
