<svg width="28" height="28" viewBox="0 0 28 28" fill="none" xmlns="http://www.w3.org/2000/svg" xmlns:xlink="http://www.w3.org/1999/xlink">
<path d="M21.747,20.319L27.693,26.093L25.729,28.001L19.784,22.226C17.572,23.948 14.821,24.885 11.986,24.881C5.09,24.881 -0.508,19.444 -0.508,12.745C-0.508,6.046 5.09,0.609 11.986,0.609C18.883,0.609 24.481,6.046 24.481,12.745C24.485,15.498 23.52,18.17 21.747,20.319ZM18.962,19.318C20.724,17.558 21.708,15.199 21.704,12.745C21.704,7.529 17.355,3.306 11.986,3.306C6.617,3.306 2.269,7.529 2.269,12.745C2.269,17.959 6.617,22.184 11.986,22.184C14.514,22.188 16.942,21.232 18.754,19.521L18.962,19.318L18.962,19.318Z" fill="#838383"/>
</svg>
