<svg width="36" height="34" viewBox="0 0 36 34" fill="none" xmlns="http://www.w3.org/2000/svg" xmlns:xlink="http://www.w3.org/1999/xlink">
<path d="M7.684,26.404C8.037,25.403 8.692,24.536 9.559,23.922C10.426,23.309 11.462,22.979 12.524,22.979C13.586,22.979 14.622,23.309 15.489,23.922C16.356,24.536 17.011,25.403 17.364,26.404L34.758,26.404L34.758,29.825L17.364,29.825C17.011,30.826 16.356,31.694 15.489,32.307C14.622,32.92 13.586,33.25 12.524,33.25C11.462,33.25 10.426,32.92 9.559,32.307C8.692,31.694 8.037,30.826 7.684,29.825L0.552,29.825L0.552,26.404L7.684,26.404ZM17.946,14.432C18.299,13.431 18.954,12.563 19.821,11.95C20.688,11.336 21.724,11.007 22.786,11.007C23.848,11.007 24.884,11.336 25.751,11.95C26.618,12.563 27.273,13.431 27.626,14.432L34.758,14.432L34.758,17.853L27.626,17.853C27.273,18.854 26.618,19.721 25.751,20.335C24.884,20.948 23.848,21.277 22.786,21.277C21.724,21.277 20.688,20.948 19.821,20.335C18.954,19.721 18.299,18.854 17.946,17.853L0.552,17.853L0.552,14.432L17.946,14.432ZM7.684,2.46C8.037,1.458 8.692,0.591 9.559,-0.023C10.426,-0.636 11.462,-0.965 12.524,-0.965C13.586,-0.965 14.622,-0.636 15.489,-0.023C16.356,0.591 17.011,1.458 17.364,2.46L34.758,2.46L34.758,5.88L17.364,5.88C17.011,6.882 16.356,7.749 15.489,8.362C14.622,8.976 13.586,9.305 12.524,9.305C11.462,9.305 10.426,8.976 9.559,8.362C8.692,7.749 8.037,6.882 7.684,5.88L0.552,5.88L0.552,2.46L7.684,2.46ZM12.524,5.88C12.978,5.88 13.413,5.7 13.733,5.379C14.054,5.059 14.234,4.624 14.234,4.17C14.234,3.716 14.054,3.281 13.733,2.96C13.413,2.64 12.978,2.46 12.524,2.46C12.07,2.46 11.635,2.64 11.315,2.96C10.994,3.281 10.814,3.716 10.814,4.17C10.814,4.624 10.994,5.059 11.315,5.379C11.635,5.7 12.07,5.88 12.524,5.88L12.524,5.88ZM22.786,17.853C23.24,17.853 23.675,17.672 23.995,17.352C24.316,17.031 24.496,16.596 24.496,16.142C24.496,15.689 24.316,15.254 23.995,14.933C23.675,14.612 23.24,14.432 22.786,14.432C22.332,14.432 21.897,14.612 21.577,14.933C21.256,15.254 21.076,15.689 21.076,16.142C21.076,16.596 21.256,17.031 21.577,17.352C21.897,17.672 22.332,17.853 22.786,17.853L22.786,17.853ZM12.524,29.825C12.978,29.825 13.413,29.645 13.733,29.324C14.054,29.003 14.234,28.568 14.234,28.115C14.234,27.661 14.054,27.226 13.733,26.905C13.413,26.585 12.978,26.404 12.524,26.404C12.07,26.404 11.635,26.585 11.315,26.905C10.994,27.226 10.814,27.661 10.814,28.115C10.814,28.568 10.994,29.003 11.315,29.324C11.635,29.645 12.07,29.825 12.524,29.825L12.524,29.825Z" fill="#FFFFFF"/>
</svg>
