<svg width="22" height="28" viewBox="0 0 22 28" fill="none" xmlns="http://www.w3.org/2000/svg" xmlns:xlink="http://www.w3.org/1999/xlink">
<path d="M11.309,26.483L3.751,18.968C2.256,17.482 1.238,15.589 0.825,13.527C0.413,11.466 0.624,9.329 1.433,7.387C2.242,5.446 3.613,3.786 5.371,2.618C7.128,1.451 9.195,0.827 11.309,0.827C13.424,0.827 15.49,1.451 17.248,2.618C19.006,3.786 20.376,5.446 21.185,7.387C21.994,9.329 22.206,11.466 21.794,13.527C21.381,15.589 20.363,17.482 18.868,18.968L11.309,26.483ZM17.189,17.299C18.351,16.143 19.143,14.67 19.464,13.067C19.785,11.463 19.62,9.802 18.991,8.291C18.361,6.781 17.296,5.49 15.928,4.582C14.561,3.674 12.954,3.189 11.309,3.189C9.665,3.189 8.058,3.674 6.69,4.582C5.323,5.49 4.257,6.781 3.628,8.291C2.999,9.802 2.834,11.463 3.155,13.067C3.476,14.67 4.267,16.143 5.43,17.299L11.309,23.143L17.189,17.299L17.189,17.299ZM11.309,13.816C10.679,13.816 10.075,13.567 9.63,13.124C9.184,12.681 8.934,12.08 8.934,11.454C8.934,10.828 9.184,10.227 9.63,9.784C10.075,9.341 10.679,9.093 11.309,9.093C11.939,9.093 12.544,9.341 12.989,9.784C13.435,10.227 13.685,10.828 13.685,11.454C13.685,12.08 13.435,12.681 12.989,13.124C12.544,13.567 11.939,13.816 11.309,13.816Z" fill="#FFFFFF"/>
</svg>
