<svg width="26" height="26" viewBox="0 0 26 26" fill="none" xmlns="http://www.w3.org/2000/svg" xmlns:xlink="http://www.w3.org/1999/xlink">
<path d="M25.24,18.161L25.24,23.2C25.24,23.561 25.104,23.909 24.858,24.173C24.612,24.437 24.275,24.598 23.915,24.623C23.292,24.666 22.783,24.688 22.39,24.688C9.795,24.688 -0.414,14.48 -0.414,1.885C-0.414,1.492 -0.392,0.983 -0.348,0.36C-0.323,0 -0.162,-0.337 0.102,-0.583C0.366,-0.829 0.713,-0.965 1.074,-0.965L6.114,-0.965C6.291,-0.966 6.461,-0.9 6.592,-0.781C6.723,-0.663 6.806,-0.5 6.824,-0.324C6.856,0.004 6.886,0.265 6.915,0.463C7.198,2.439 7.778,4.362 8.636,6.165C8.772,6.45 8.683,6.791 8.427,6.973L5.351,9.171C7.232,13.552 10.724,17.044 15.105,18.925L17.3,15.855C17.39,15.73 17.521,15.64 17.67,15.601C17.819,15.562 17.977,15.577 18.117,15.643C19.92,16.499 21.842,17.078 23.818,17.36C24.016,17.389 24.277,17.42 24.602,17.451C24.777,17.469 24.94,17.552 25.058,17.683C25.176,17.814 25.242,17.984 25.242,18.161L25.24,18.161Z" fill="#FFFFFF"/>
</svg>
