<svg width="30" height="26" viewBox="0 0 30 26" fill="none" xmlns="http://www.w3.org/2000/svg" xmlns:xlink="http://www.w3.org/1999/xlink">
<path d="M29.715,10.897L29.715,24.074L26.786,24.074L26.786,19.682L3.362,19.682L3.362,24.074L0.433,24.074L0.433,0.649L3.362,0.649L3.362,15.29L15.074,15.29L15.074,5.041L23.858,5.041C25.412,5.041 26.901,5.658 27.999,6.756C29.098,7.855 29.715,9.344 29.715,10.897ZM9.218,13.826C8.053,13.826 6.936,13.363 6.112,12.539C5.288,11.715 4.826,10.598 4.826,9.433C4.826,8.269 5.288,7.151 6.112,6.328C6.936,5.504 8.053,5.041 9.218,5.041C10.383,5.041 11.5,5.504 12.324,6.328C13.147,7.151 13.61,8.269 13.61,9.433C13.61,10.598 13.147,11.715 12.324,12.539C11.5,13.363 10.383,13.826 9.218,13.826Z" fill="#858585"/>
</svg>
