<svg width="28" height="22" viewBox="0 0 28 22" fill="none" xmlns="http://www.w3.org/2000/svg" xmlns:xlink="http://www.w3.org/1999/xlink">
<path d="M27.412,8.775L27.412,21.101L24.672,21.101L24.672,16.992L2.759,16.992L2.759,21.101L0.02,21.101L0.02,-0.813L2.759,-0.813L2.759,12.884L13.716,12.884L13.716,3.296L21.933,3.296C23.386,3.296 24.78,3.874 25.807,4.901C26.834,5.928 27.412,7.322 27.412,8.775ZM8.237,11.514C7.147,11.514 6.102,11.081 5.332,10.31C4.561,9.54 4.128,8.495 4.128,7.405C4.128,6.315 4.561,5.27 5.332,4.5C6.102,3.729 7.147,3.296 8.237,3.296C9.327,3.296 10.372,3.729 11.143,4.5C11.913,5.27 12.346,6.315 12.346,7.405C12.346,8.495 11.913,9.54 11.143,10.31C10.372,11.081 9.327,11.514 8.237,11.514Z" fill="#858585"/>
</svg>
