<svg width="28" height="24" viewBox="0 0 28 24" fill="none" xmlns="http://www.w3.org/2000/svg" xmlns:xlink="http://www.w3.org/1999/xlink">
<path d="M27.412,9.846L27.412,22.173L24.672,22.173L24.672,18.064L2.759,18.064L2.759,22.173L0.02,22.173L0.02,0.259L2.759,0.259L2.759,13.955L13.716,13.955L13.716,4.368L21.933,4.368C23.386,4.368 24.78,4.945 25.807,5.973C26.834,7 27.412,8.394 27.412,9.846ZM8.237,12.586C7.147,12.586 6.102,12.153 5.332,11.382C4.561,10.612 4.128,9.567 4.128,8.477C4.128,7.387 4.561,6.342 5.332,5.572C6.102,4.801 7.147,4.368 8.237,4.368C9.327,4.368 10.372,4.801 11.143,5.572C11.913,6.342 12.346,7.387 12.346,8.477C12.346,9.567 11.913,10.612 11.143,11.382C10.372,12.153 9.327,12.586 8.237,12.586Z" fill="#858585"/>
</svg>
