<svg width="32" height="32" viewBox="0 0 32 32" fill="none" xmlns="http://www.w3.org/2000/svg" xmlns:xlink="http://www.w3.org/1999/xlink">
<path d="M6.824,2.891L8.659,5.514C6.429,7.075 4.755,9.306 3.88,11.884C3.004,14.462 2.974,17.252 3.792,19.848C4.611,22.444 6.236,24.712 8.431,26.322C10.626,27.932 13.278,28.799 16,28.799C18.722,28.799 21.374,27.932 23.569,26.322C25.764,24.712 27.389,22.444 28.208,19.848C29.026,17.252 28.996,14.462 28.12,11.884C27.245,9.306 25.571,7.075 23.341,5.514L25.176,2.891C27.285,4.365 29.006,6.327 30.194,8.609C31.382,10.892 32.002,13.427 32,16C32,24.837 24.837,32 16,32C7.163,32 0,24.837 0,16C-0.002,13.427 0.618,10.892 1.806,8.609C2.994,6.327 4.715,4.365 6.824,2.891L6.824,2.891ZM14.4,16L14.4,0L17.6,0L17.6,16L14.4,16Z" fill="#FFFFFF"/>
</svg>
