<svg width="26" height="36" viewBox="0 0 26 36" fill="none" xmlns="http://www.w3.org/2000/svg" xmlns:xlink="http://www.w3.org/1999/xlink">
<path d="M25.794,34.086L22.587,34.086L22.587,30.879C22.587,29.604 22.08,28.38 21.178,27.478C20.276,26.576 19.052,26.069 17.776,26.069L8.156,26.069C6.88,26.069 5.656,26.576 4.754,27.478C3.852,28.38 3.345,29.604 3.345,30.879L3.345,34.086L0.138,34.086L0.138,30.879C0.138,28.753 0.983,26.714 2.487,25.21C3.99,23.707 6.029,22.862 8.156,22.862L17.776,22.862C19.903,22.862 21.942,23.707 23.445,25.21C24.949,26.714 25.794,28.753 25.794,30.879L25.794,34.086ZM12.966,19.655C11.703,19.655 10.452,19.406 9.284,18.923C8.117,18.439 7.057,17.731 6.163,16.837C5.27,15.944 4.561,14.883 4.078,13.716C3.594,12.549 3.345,11.298 3.345,10.034C3.345,8.771 3.594,7.52 4.078,6.353C4.561,5.186 5.27,4.125 6.163,3.232C7.057,2.338 8.117,1.63 9.284,1.146C10.452,0.663 11.703,0.414 12.966,0.414C15.518,0.414 17.965,1.427 19.769,3.232C21.573,5.036 22.587,7.483 22.587,10.034C22.587,12.586 21.573,15.033 19.769,16.837C17.965,18.642 15.518,19.655 12.966,19.655L12.966,19.655ZM12.966,16.448C14.667,16.448 16.298,15.773 17.501,14.57C18.704,13.367 19.38,11.736 19.38,10.034C19.38,8.333 18.704,6.702 17.501,5.499C16.298,4.296 14.667,3.621 12.966,3.621C11.265,3.621 9.634,4.296 8.431,5.499C7.228,6.702 6.552,8.333 6.552,10.034C6.552,11.736 7.228,13.367 8.431,14.57C9.634,15.773 11.265,16.448 12.966,16.448L12.966,16.448Z" fill="#FFFFFF"/>
</svg>
