<svg width="26" height="34" viewBox="0 0 26 34" fill="none" xmlns="http://www.w3.org/2000/svg" xmlns:xlink="http://www.w3.org/1999/xlink">
<path d="M0.638,0.759L23.086,0.759C23.512,0.759 23.919,0.928 24.22,1.228C24.521,1.529 24.69,1.937 24.69,2.362L24.69,33.057C24.69,33.2 24.652,33.341 24.579,33.465C24.506,33.588 24.402,33.69 24.276,33.76C24.151,33.829 24.009,33.863 23.866,33.859C23.723,33.856 23.583,33.813 23.462,33.737L11.862,26.462L0.263,33.735C0.142,33.812 0.002,33.854 -0.141,33.858C-0.284,33.862 -0.426,33.828 -0.551,33.758C-0.677,33.689 -0.781,33.587 -0.854,33.464C-0.927,33.341 -0.965,33.2 -0.965,33.057L-0.965,2.362C-0.965,1.937 -0.796,1.529 -0.496,1.228C-0.195,0.928 0.213,0.759 0.638,0.759ZM21.483,3.966L2.242,3.966L2.242,28.71L11.862,22.68L21.483,28.71L21.483,3.966Z" fill="#FFFFFF"/>
</svg>
