<svg width="28" height="34" viewBox="0 0 28 34" fill="none" xmlns="http://www.w3.org/2000/svg" xmlns:xlink="http://www.w3.org/1999/xlink">
<path d="M14,33.799L4.1,23.899C2.143,21.941 0.809,19.447 0.269,16.731C-0.271,14.015 0.006,11.201 1.066,8.642C2.125,6.084 3.92,3.898 6.222,2.359C8.524,0.821 11.231,0 14,0C16.769,0 19.476,0.821 21.778,2.359C24.08,3.898 25.875,6.084 26.934,8.642C27.994,11.201 28.271,14.015 27.731,16.731C27.191,19.447 25.857,21.941 23.9,23.899L14,33.799ZM21.7,21.7C23.223,20.177 24.26,18.237 24.68,16.125C25.1,14.012 24.884,11.823 24.06,9.833C23.236,7.844 21.84,6.143 20.049,4.947C18.259,3.75 16.154,3.112 14,3.112C11.846,3.112 9.741,3.75 7.951,4.947C6.16,6.143 4.764,7.844 3.94,9.833C3.116,11.823 2.9,14.012 3.32,16.125C3.74,18.237 4.777,20.177 6.3,21.7L14,29.4L21.7,21.7L21.7,21.7ZM14,17.111C13.175,17.111 12.384,16.783 11.8,16.2C11.217,15.616 10.889,14.825 10.889,14C10.889,13.175 11.217,12.383 11.8,11.8C12.384,11.217 13.175,10.889 14,10.889C14.825,10.889 15.616,11.217 16.2,11.8C16.783,12.383 17.111,13.175 17.111,14C17.111,14.825 16.783,15.616 16.2,16.2C15.616,16.783 14.825,17.111 14,17.111Z" fill="#FFFFFF"/>
</svg>
