<svg width="24" height="32" viewBox="0 0 24 32" fill="none" xmlns="http://www.w3.org/2000/svg" xmlns:xlink="http://www.w3.org/1999/xlink">
<path d="M1.5,0L22.5,0C22.898,0 23.279,0.158 23.561,0.439C23.842,0.721 24,1.102 24,1.5L24,30.215C24,30.349 23.964,30.48 23.896,30.596C23.828,30.711 23.731,30.807 23.613,30.872C23.496,30.937 23.363,30.969 23.229,30.965C23.095,30.961 22.965,30.922 22.851,30.85L12,24.045L1.149,30.849C1.036,30.92 0.905,30.96 0.771,30.964C0.637,30.967 0.505,30.935 0.387,30.87C0.27,30.806 0.172,30.711 0.104,30.595C0.036,30.48 0,30.348 0,30.215L0,1.5C0,1.102 0.158,0.721 0.439,0.439C0.721,0.158 1.102,0 1.5,0ZM21,3L3,3L3,26.148L12,20.507L21,26.148L21,3Z" fill="#FFFFFF"/>
</svg>
