<svg width="36" height="36" viewBox="0 0 36 36" fill="none" xmlns="http://www.w3.org/2000/svg" xmlns:xlink="http://www.w3.org/1999/xlink">
<path d="M1.597,26.484C0.847,25.186 0.264,23.8 -0.138,22.356C0.737,21.911 1.472,21.232 1.986,20.395C2.499,19.558 2.771,18.595 2.772,17.613C2.772,16.631 2.501,15.668 1.988,14.83C1.475,13.993 0.74,13.313 -0.135,12.867C0.667,9.967 2.195,7.318 4.303,5.171C5.127,5.706 6.083,6.004 7.065,6.029C8.047,6.055 9.017,5.809 9.867,5.318C10.718,4.827 11.416,4.11 11.885,3.246C12.353,2.383 12.573,1.407 12.521,0.426C15.436,-0.327 18.493,-0.326 21.407,0.429C21.355,1.41 21.576,2.386 22.045,3.249C22.514,4.113 23.212,4.829 24.063,5.32C24.914,5.811 25.884,6.057 26.866,6.03C27.848,6.004 28.803,5.707 29.627,5.171C30.654,6.218 31.566,7.409 32.333,8.738C33.101,10.067 33.676,11.453 34.069,12.866C33.193,13.311 32.458,13.99 31.944,14.827C31.431,15.664 31.159,16.627 31.158,17.609C31.158,18.591 31.429,19.554 31.942,20.392C32.455,21.229 33.19,21.908 34.065,22.354C33.263,25.255 31.735,27.903 29.627,30.051C28.803,29.515 27.847,29.218 26.865,29.192C25.884,29.166 24.914,29.412 24.063,29.904C23.212,30.395 22.514,31.112 22.045,31.975C21.577,32.839 21.357,33.815 21.409,34.796C18.495,35.549 15.437,35.548 12.523,34.792C12.575,33.811 12.354,32.835 11.885,31.972C11.416,31.109 10.718,30.392 9.867,29.901C9.016,29.411 8.046,29.165 7.064,29.191C6.082,29.217 5.127,29.515 4.303,30.051C3.255,28.98 2.345,27.782 1.597,26.484ZM11.641,26.832C13.532,27.922 14.954,29.673 15.634,31.747C16.52,31.831 17.409,31.832 18.294,31.749C18.975,29.674 20.397,27.924 22.289,26.833C24.179,25.74 26.407,25.383 28.544,25.831C29.059,25.107 29.502,24.335 29.872,23.527C28.415,21.901 27.611,19.794 27.613,17.611C27.613,15.375 28.447,13.286 29.872,11.694C29.5,10.887 29.054,10.116 28.541,9.391C26.405,9.839 24.178,9.482 22.289,8.39C20.398,7.299 18.976,5.549 18.296,3.474C17.41,3.391 16.521,3.389 15.636,3.473C14.955,5.547 13.533,7.298 11.641,8.388C9.751,9.482 7.523,9.839 5.386,9.391C4.872,10.115 4.428,10.887 4.058,11.694C5.515,13.321 6.319,15.428 6.318,17.611C6.318,19.847 5.483,21.935 4.058,23.527C4.43,24.334 4.876,25.106 5.389,25.831C7.526,25.383 9.752,25.739 11.641,26.832ZM16.965,22.935C15.553,22.935 14.199,22.374 13.201,21.375C12.202,20.377 11.641,19.023 11.641,17.611C11.641,16.199 12.202,14.845 13.201,13.846C14.199,12.848 15.553,12.287 16.965,12.287C18.377,12.287 19.731,12.848 20.73,13.846C21.728,14.845 22.289,16.199 22.289,17.611C22.289,19.023 21.728,20.377 20.73,21.375C19.731,22.374 18.377,22.935 16.965,22.935ZM16.965,19.385C17.436,19.385 17.887,19.198 18.22,18.866C18.553,18.533 18.74,18.081 18.74,17.611C18.74,17.14 18.553,16.689 18.22,16.356C17.887,16.023 17.436,15.836 16.965,15.836C16.494,15.836 16.043,16.023 15.71,16.356C15.377,16.689 15.19,17.14 15.19,17.611C15.19,18.081 15.377,18.533 15.71,18.866C16.043,19.198 16.494,19.385 16.965,19.385Z" fill="#FFFFFF"/>
</svg>
