<svg width="30" height="26" viewBox="0 0 30 26" fill="none" xmlns="http://www.w3.org/2000/svg" xmlns:xlink="http://www.w3.org/1999/xlink">
<path d="M29.715,10.844L29.715,24.02L26.786,24.02L26.786,19.628L3.362,19.628L3.362,24.02L0.433,24.02L0.433,0.595L3.362,0.595L3.362,15.236L15.074,15.236L15.074,4.987L23.858,4.987C25.412,4.987 26.901,5.604 27.999,6.703C29.098,7.801 29.715,9.29 29.715,10.844ZM9.218,13.772C8.053,13.772 6.936,13.309 6.112,12.485C5.288,11.661 4.826,10.544 4.826,9.379C4.826,8.215 5.288,7.097 6.112,6.274C6.936,5.45 8.053,4.987 9.218,4.987C10.383,4.987 11.5,5.45 12.324,6.274C13.147,7.097 13.61,8.215 13.61,9.379C13.61,10.544 13.147,11.661 12.324,12.485C11.5,13.309 10.383,13.772 9.218,13.772Z" fill="#858585"/>
</svg>
